<?xml version="1.0" encoding="UTF-8"?>
<!DOCTYPE svg PUBLIC "-//W3C//DTD SVG 1.1//EN" "http://www.w3.org/Graphics/SVG/1.1/DTD/svg11.dtd">
<!-- Creator: CorelDRAW 2018 (64-Bit) -->
<svg xmlns="http://www.w3.org/2000/svg" xml:space="preserve" width="71.638mm" height="71.638mm" version="1.1" style="shape-rendering:geometricPrecision; text-rendering:geometricPrecision; image-rendering:optimizeQuality; fill-rule:evenodd; clip-rule:evenodd"
viewBox="0 0 1013.25 1013.25"
 xmlns:xlink="http://www.w3.org/1999/xlink">
 <defs>
  <style type="text/css">
   <![CDATA[
    .fil6 {fill:#7CFF40}
    .fil2 {fill:#813F8E}
    .fil1 {fill:#D25922}
    .fil0 {fill:#E06E37}
    .fil3 {fill:#EDAC1A}
    .fil4 {fill:#FEE500}
    .fil5 {fill:white}
   ]]>
  </style>
 </defs>
 <g id="Слой_x0020_1">
  <metadata id="CorelCorpID_0Corel-Layer"/>
  <circle class="fil0" cx="506.62" cy="506.62" r="506.62"/>
  <path class="fil1" d="M286.37 259.6l440.5 0c52.11,0.05 94.34,42.28 94.39,94.39l0 361.84c-0.05,52.11 -42.28,94.34 -94.39,94.39l-440.5 0c-52.11,-0.05 -94.34,-42.28 -94.39,-94.39l0 -361.84c0.05,-52.11 42.28,-94.34 94.39,-94.39z"/>
  <path class="fil2" d="M726.87 231.31l-440.5 0c-52.11,0.05 -94.34,42.28 -94.39,94.39l0 361.84c0.05,52.11 42.28,94.34 94.39,94.39l440.5 0c52.11,-0.05 94.34,-42.28 94.39,-94.39l0 -361.84c-0.05,-52.11 -42.28,-94.34 -94.39,-94.39z"/>
  <path class="fil3" d="M726.87 231.31l-440.5 0c-52.11,0.05 -94.34,42.28 -94.39,94.39l0 361.84c0.05,52.11 42.28,94.34 94.39,94.39l440.5 0c52.11,-0.05 94.34,-42.28 94.39,-94.39l0 -361.84c-0.05,-52.11 -42.28,-94.34 -94.39,-94.39zm-503.43 125.86l566.36 0 0 330.38 -0 0c0,34.75 -28.17,62.93 -62.93,62.93l-440.5 0c-34.75,0 -62.93,-28.17 -62.93,-62.93l0 -330.38zm566.36 -31.46l-566.36 0c0,-34.75 28.17,-62.93 62.93,-62.93l440.5 0c34.75,0 62.93,28.17 62.93,62.93z"/>
  <rect class="fil4" x="270.64" y="278.51" width="78.66" height="31.46"/>
  <rect class="fil4" x="380.77" y="278.51" width="31.46" height="31.46"/>
  <rect class="fil4" x="443.7" y="278.51" width="31.46" height="31.46"/>
  <path class="fil5" d="M343.01 416.95l-18.88 -25.17 -62.93 47.2c-1.19,0.89 -2.25,1.95 -3.15,3.15 -5.21,6.95 -3.8,16.81 3.15,22.03l62.93 47.2 18.88 -25.17 -46.14 -34.61 46.14 -34.61z"/>
  <path class="fil5" d="M453.13 438.98l-62.93 -47.2 -18.88 25.17 46.14 34.61 -46.14 34.61 18.88 25.17 62.93 -47.2c1.19,-0.89 2.25,-1.95 3.15,-3.15 5.21,-6.95 3.8,-16.81 -3.15,-22.03z"/>
  <path class="fil5" d="M641.92 558.54l-18.88 -25.17 -62.93 47.2c-1.19,0.89 -2.25,1.95 -3.15,3.15 -5.21,6.95 -3.8,16.81 3.15,22.03l62.93 47.2 18.88 -25.17 -46.14 -34.61 46.14 -34.61z"/>
  <path class="fil5" d="M752.05 580.57l-62.93 -47.2 -18.88 25.17 46.14 34.61 -46.14 34.61 18.88 25.17 62.93 -47.2c1.19,-0.89 2.25,-1.95 3.15,-3.15 5.21,-6.95 3.8,-16.81 -3.15,-22.03z"/>
  <rect class="fil5" x="490.89" y="404.36" width="94.39" height="31.46"/>
  <rect class="fil5" x="616.75" y="404.36" width="31.46" height="31.46"/>
  <rect class="fil5" x="679.68" y="404.36" width="31.46" height="31.46"/>
  <rect class="fil5" x="616.75" y="467.29" width="94.39" height="31.46"/>
  <rect class="fil5" x="553.82" y="467.29" width="31.46" height="31.46"/>
  <rect class="fil5" x="490.89" y="467.29" width="31.46" height="31.46"/>
  <rect class="fil6" x="302.11" y="545.95" width="94.39" height="31.46"/>
  <rect class="fil6" x="427.96" y="545.95" width="31.46" height="31.46"/>
  <rect class="fil6" x="490.89" y="545.95" width="31.46" height="31.46"/>
  <rect class="fil6" x="427.96" y="608.88" width="94.39" height="31.46"/>
  <rect class="fil6" x="365.03" y="608.88" width="31.46" height="31.46"/>
  <rect class="fil6" x="302.11" y="608.88" width="31.46" height="31.46"/>
  <rect class="fil5" x="302.11" y="671.81" width="393.31" height="31.46"/>
 </g>
</svg>
