<svg width="55" height="53" viewBox="0 0 55 53" fill="none" xmlns="http://www.w3.org/2000/svg">
<path d="M46.2828 48.4134L50.9984 49.0771V49.0945V49.1295V49.1644V49.1993V49.2343V49.2692V49.3041V49.339V49.374V49.4089V49.4438V49.4788V49.5137V49.5486V49.5836V49.6185V49.6534V49.6884V49.7233V49.7582V49.7931V49.8281V49.863V49.8979V49.9329V49.9678V50.0027V50.0377V50.09V50.125V50.1599V50.1948L46.3003 49.4089V49.3914V49.374V49.3565V49.339V49.3216V49.2867V49.2517V49.2168V49.1993V49.1819V49.1469V49.112V49.0771V49.0421V49.0072V48.9723V48.9374V48.9024V48.8675V48.8326V48.7976V48.7627V48.7278V48.6928V48.6579V48.623V48.5881V48.5531V48.5182V48.4833V48.4483V48.4134H46.2828ZM46.4749 46.9638L51.208 47.4877V47.5401V47.5925V47.6449V47.6973V47.7497V47.8021V47.8545V47.9069V47.9593V48.0117V48.0641V48.1165V48.1689V48.2213V48.2737V48.3261V48.3785V48.4309V48.4833V48.5357V48.5881V48.6404V48.6928V48.7452V48.7976V48.85V48.9024V48.9548V49.0072V49.0421V49.0945V49.1469L46.4924 48.4833V48.4309V48.3785V48.3261V48.2737V48.2387V48.1864V48.134V48.0816V48.0292V47.9768V47.9418V47.8894V47.8371V47.7847V47.7323V47.6973V47.6624V47.61V47.5576V47.5227V47.4703V47.4179V47.383V47.3306V47.2782V47.2432V47.1908V47.1559V47.1035V47.0511V47.0162V46.9813L46.4749 46.9638ZM46.8766 43.9249L51.6097 44.4314L51.5922 44.5361L51.5747 44.6409L51.5573 44.7457L51.5398 44.8505L51.5223 44.9553L51.5049 45.0601L51.4874 45.1649L51.4699 45.2697L51.4525 45.3745L51.435 45.4793L51.4175 45.5841L51.4001 45.6888L51.3826 45.7936L51.3652 45.881L51.3477 45.9683L51.3302 46.0731L51.3128 46.1604L51.2953 46.2477L51.2778 46.3351L51.2604 46.4224L51.2429 46.5097L51.2254 46.597L51.208 46.6844L51.1905 46.7717L51.173 46.859L51.1556 46.9463L51.1381 47.0337L51.1206 47.121L51.1032 47.2083L51.0857 47.2956L51.0682 47.383L51.0508 47.4703L46.3177 46.9463L46.3352 46.8415L46.3527 46.7367L46.3701 46.632L46.3876 46.5272L46.4051 46.4224L46.4225 46.3176L46.44 46.2128L46.4575 46.108L46.4749 46.0032L46.4924 45.8984L46.5099 45.7936L46.5273 45.6888L46.5448 45.5841L46.5622 45.4793L46.5797 45.3919L46.5972 45.3046L46.6146 45.2173L46.6321 45.13L46.6496 45.0426L46.667 44.9553L46.6845 44.868L46.702 44.7807L46.7194 44.6933L46.7369 44.606L46.7544 44.5187L46.7718 44.4314L46.7893 44.344L46.8068 44.2567L46.8242 44.1694L46.8417 44.082L46.8592 43.9947L46.8766 43.9074V43.9249ZM47.2783 40.8859L51.9939 41.5671L51.9764 41.6544L51.959 41.7417L51.9415 41.8291L51.924 41.9164L51.9066 42.0037L51.8891 42.091L51.8716 42.1784L51.8542 42.2657L51.8367 42.353L51.8192 42.4403L51.8018 42.5277L51.7843 42.615L51.7668 42.7023L51.7494 42.7896L51.7319 42.877L51.7145 42.9643L51.697 43.0516L51.6795 43.1389L51.6621 43.2263L51.6446 43.3136L51.6271 43.4009L51.6097 43.4882L51.5922 43.5756L51.5747 43.6629L51.5573 43.7502L51.5398 43.8375L51.5223 43.9249L51.5049 44.0122L51.4874 44.0995L51.4699 44.1868L51.4525 44.2742L51.435 44.3615L46.702 43.855L46.7194 43.7677L46.7369 43.6804L46.7544 43.593L46.7718 43.4882L46.7893 43.4009L46.8068 43.3136L46.8242 43.2088L46.8417 43.104L46.8592 43.0167L46.8766 42.9119L46.8941 42.8071L46.9115 42.7023L46.929 42.5975L46.9465 42.4927L46.9639 42.3879L46.9814 42.3006L46.9989 42.1958L47.0163 42.091L47.0338 42.0037L47.0513 41.8989L47.0687 41.7941L47.0862 41.7068L47.1037 41.6195L47.1211 41.5147L47.1386 41.4274L47.1561 41.34L47.1735 41.2527L47.191 41.1654L47.2085 41.0781L47.2259 40.9907L47.2434 40.9034L47.2608 40.8161L47.2783 40.8859ZM50.2474 40.589L49.8457 35.8385L52.3607 38.7552L52.3432 38.8076L52.3257 38.86L52.3083 38.9298L52.2908 38.9997L52.2733 39.0696L52.2559 39.1394L52.2384 39.2093L52.2209 39.2791L52.2035 39.349L52.186 39.4363L52.1685 39.5237L52.1511 39.611L52.1336 39.6983L52.1161 39.7856L52.0987 39.873L52.0812 39.9603L52.0638 40.0476L52.0463 40.1349L52.0288 40.2397L52.0114 40.3445L51.9939 40.4493L51.9764 40.5541L51.959 40.6589L51.9415 40.7637L51.924 40.8685L51.9066 40.9733L51.8891 41.0781L51.8716 41.1828L51.8542 41.2876L51.8367 41.3924L51.8192 41.4972L51.8018 41.602L47.0862 40.9209L47.1037 40.851L47.1211 40.7637L47.1386 40.6764L47.1561 40.589L47.1735 40.5017L47.191 40.4144L47.2085 40.327L47.2259 40.2397L47.2434 40.1349L47.2608 40.0301L47.2783 39.9254L47.2958 39.8206L47.3132 39.7158L47.3307 39.611L47.3482 39.5062L47.3656 39.4014L47.3831 39.2966L47.4006 39.1918L47.418 39.087L47.4355 38.9822L47.453 38.8774L47.4704 38.7727L47.4879 38.6679L47.5054 38.5631L47.5228 38.4583L47.5403 38.3535L47.5578 38.2487L47.5752 38.1439L47.5927 38.0391L47.6102 37.9343L47.6276 37.8295L47.6451 37.7247L50.1601 40.6414L50.2474 40.589ZM49.8457 35.8385L53.1117 35.5591L52.3607 38.7377L49.8457 35.821V35.8385ZM48.0118 40.9034V36.1354H48.0817H48.1341H48.1865H48.2389H48.2913H48.3262H48.3612H48.3961H48.431H48.4659H48.5009H48.5358H48.5707H48.6057H48.6406L48.6755 36.118L48.7105 36.1005L48.7454 36.083L48.7978 36.0656L48.8502 36.0481L48.9026 36.0306L48.955 36.0132L49.0248 35.9957L49.0947 35.9782L49.1645 35.9608L49.2519 35.9433L49.3392 35.9258L49.4265 35.9084L49.5138 35.8909L49.6186 35.8734L49.7234 35.856L49.8282 35.8385L50.2299 40.589H50.2125H50.195H50.1775H50.1601H50.1251H50.1077L50.0727 40.6065L50.0203 40.624L49.9679 40.6414L49.9155 40.6589L49.8457 40.6764L49.7758 40.6938L49.706 40.7113L49.6361 40.7287L49.5488 40.7462L49.4615 40.7637L49.3741 40.7811L49.2868 40.7986L49.182 40.8161L49.0772 40.8335L48.9724 40.851L48.8676 40.8685L48.7454 40.8859L48.6231 40.9034H48.5009H48.3786H48.2564H48.1341H47.9944H48.0118ZM41.1655 37.8994L36.4499 38.5281L39.3492 35.8909L39.5063 35.9258L39.681 35.9608L39.8731 35.9957L40.0827 36.0306L40.3097 36.0656L40.5368 36.083L40.7813 36.1005L41.0433 36.118L41.3052 36.1354L41.5847 36.1529L41.8641 36.1704L42.1436 36.1878H42.4405H42.7374H43.0343H43.3312H43.6456H43.9599H44.2743H44.5887H44.9031H45.2174H45.5143H45.8112H46.1081H46.4051H46.702H46.9814H47.2608H47.5228H47.7848H48.0468V40.9558H47.8197H47.5752H47.3132H47.0513H46.7718H46.4924H46.1955H45.8986H45.5842H45.2698H44.9555H44.6411H44.3092H43.9774H43.6456H43.3137H42.9819H42.6501H42.3182H41.9864L41.6545 40.9383L41.3227 40.9209L41.0083 40.9034L40.694 40.8859L40.3796 40.8685L40.0652 40.8335L39.7508 40.7986L39.4539 40.7637L39.157 40.7287L38.8601 40.6764L38.5632 40.624L38.2663 40.5541L41.1655 37.9169V37.8994ZM36.4499 38.5281L35.9958 35.105L39.3492 35.8909L36.4499 38.5281ZM38.0218 50.3171L36.4499 38.5281L41.1655 37.8994L42.7374 49.6884L38.3536 51.2427L38.0218 50.3171ZM38.3536 51.2427L38.0917 50.8061L38.0218 50.2996L38.3536 51.2253V51.2427ZM42.9644 47.7672V52.5352H42.9295H42.8771H42.8247H42.7548H42.6675H42.5802H42.4929H42.3881H42.2833H42.1785H42.0562H41.934H41.8117H41.6895H41.5672H41.445H41.3227H41.2005H41.0607H40.921L40.7813 52.5177L40.6416 52.5002L40.5018 52.4828L40.3447 52.4653L40.17 52.4304L39.9779 52.3954L39.7508 52.3256L39.4889 52.2208L39.1745 52.0461L38.7728 51.7492L38.3362 51.2253L42.3881 48.7278L42.0039 48.2562L41.672 47.9942L41.4275 47.872L41.2703 47.8021L41.1655 47.7672L41.1131 47.7497H41.1481H41.2005H41.2703H41.3402H41.41H41.4974H41.5847H41.672H41.7593H41.8467H41.934H42.0213H42.1086H42.196H42.2833H42.3706H42.4579H42.5278H42.6151H42.7025H42.7723H42.8422H42.9295L42.9644 47.7672ZM48.169 47.7672V52.5352H48.0118H47.8547H47.6975H47.5403H47.3831H47.2259H47.0687H46.9115H46.7544H46.5972H46.44H46.2828H46.1256H45.9684H45.8112H45.6541H45.4969H45.3397H45.1825H45.0253H44.8681H44.7109H44.5538H44.3966H44.2394H44.0822H43.925H43.7678H43.6106H43.4535H43.2963H43.1391V47.7672H43.2963H43.4535H43.6106H43.7678H43.925H44.0822H44.2394H44.3966H44.5538H44.7109H44.8681H45.0253H45.1825H45.3397H45.4969H45.6541H45.8112H45.9684H46.1256H46.2828H46.44H46.5972H46.7544H46.9115H47.0687H47.2259H47.3831H47.5403H47.6975H47.8547H48.0118H48.169ZM46.1256 49.4438L50.8237 50.2298V50.2472V50.2647V50.2822V50.2996V50.3346V50.387L50.8063 50.4568L50.7888 50.5441L50.7713 50.6489L50.7364 50.8061L50.6665 50.9808L50.5618 51.2078L50.422 51.4349L50.2299 51.6794L49.9854 51.9239L49.7409 52.116L49.444 52.2907L49.1995 52.3954L48.9899 52.4653L48.7978 52.5002L48.6581 52.5177L48.5533 52.5352H48.4659H48.3786H48.3262H48.2738H48.2389H48.2214H48.204H48.1865V47.7672H48.2214H48.2564H48.2738H48.2214H48.1516H48.0817L47.9769 47.7847L47.8023 47.8196L47.6102 47.872L47.3831 47.9768L47.1037 48.134L46.8766 48.3086L46.6496 48.5357L46.4749 48.7627L46.3527 48.9723L46.2479 49.1819L46.1955 49.339L46.1605 49.4613L46.1431 49.5312L46.1256 49.5836V49.5486V49.5137V49.4613V49.4089V49.4438Z" fill="black"/>
<path fill-rule="evenodd" clip-rule="evenodd" d="M48.5009 49.8456C48.5533 49.4963 48.5882 49.1121 48.6406 48.7453C48.7105 48.2563 48.7803 47.7324 48.8327 47.2259C48.9375 46.2129 49.1296 45.1999 49.2344 44.1869C49.3392 43.2438 49.4964 42.161 49.6186 41.2353C49.7584 40.2748 49.8282 39.0871 50.0378 38.2139C49.444 38.2663 49.0598 38.5108 48.0119 38.5108C45.4619 38.5108 41.0782 38.7378 38.8077 38.2139L40.3796 50.0028C40.5543 50.2997 42.5453 50.16 42.9644 50.16C44.6935 50.16 46.44 50.16 48.169 50.16C48.4834 50.16 48.431 50.1775 48.4834 49.8456H48.5009Z" fill="#FAFAFA"/>
<path d="M27.8917 52.535H21.6916V47.767H27.8917V52.535ZM26.1103 47.6971L30.8259 48.3084V48.3608V48.4132V48.483V48.5529V48.6402V48.7276V48.8149L30.8084 48.9022L30.7909 49.007L30.7735 49.1118L30.756 49.2166L30.7385 49.3214L30.7211 49.4262L30.7036 49.5484L30.6861 49.6707L30.6687 49.7929L30.6512 49.9152L30.6337 50.0374L30.5988 50.1772L30.5639 50.3169L30.5289 50.4566L30.4766 50.6138L30.4067 50.7884L30.3194 50.9631L30.2146 51.1727L30.0749 51.3997L29.8827 51.6442L29.6382 51.9062L29.3064 52.1507L28.8872 52.3778L28.3982 52.5175L27.8917 52.5699V47.8019L27.4726 47.8368L27.0709 47.9591L26.7216 48.1337L26.4596 48.3259L26.2675 48.518L26.1452 48.6752L26.0579 48.8149L26.0055 48.9197L25.9706 48.9895L25.9531 49.0419L25.9356 49.0769V49.0594V49.0245V48.9895V48.9371V48.8847V48.8324V48.7625V48.6926V48.6228V48.5354V48.4481V48.3608V48.2735V48.1861L25.9531 48.0988L25.9706 48.0115L25.988 47.9242L26.0055 47.8194L26.0229 47.7146L26.1103 47.6971ZM29.6033 42.8244L29.2016 38.0738L31.7864 40.4491V40.6412L31.769 40.8159L31.7515 40.9905L31.734 41.1826L31.7166 41.3922L31.6991 41.6018L31.6816 41.8288L31.6467 42.0734L31.6118 42.3353L31.5769 42.5973L31.5419 42.8767L31.507 43.1562L31.4721 43.4531L31.4371 43.75L31.4022 44.0469L31.3673 44.3613L31.3323 44.6757L31.2974 44.99L31.2625 45.2869L31.2276 45.5838L31.1926 45.8807L31.1577 46.1777L31.1228 46.4571L31.0878 46.7191L31.0529 46.9811L31.018 47.2256L30.983 47.4526L30.9481 47.6622L30.9132 47.8543L30.8957 48.029L30.8783 48.1861L30.8608 48.3084L26.1452 47.6971L26.1627 47.5574L26.1801 47.4002L26.1976 47.2256L26.2325 47.0334L26.2675 46.8239L26.3024 46.5968L26.3373 46.3523L26.3723 46.0903L26.4072 45.8284L26.4421 45.5489L26.477 45.2695L26.512 44.9726L26.5469 44.6757L26.5818 44.3787L26.6168 44.0818L26.6517 43.7849L26.6866 43.488L26.7216 43.1911L26.7565 42.8942L26.7914 42.6148L26.8263 42.3353L26.8613 42.0734L26.8962 41.8114L26.9311 41.5669L26.9486 41.3398L26.9661 41.1302L26.9835 40.9381L27.001 40.7809L27.0185 40.6412V40.5364V40.484V40.5015L29.6033 42.8767V42.8244ZM29.2016 38.0738L31.7864 37.8643V40.4491L29.2016 38.0738ZM27.7869 43.0339V38.266H27.8219H27.8568H27.8917H27.9092H27.9266H27.9441H27.979H27.9965H28.014H28.0489H28.0664H28.0838H28.1188H28.1537H28.1886H28.2236H28.2585H28.2934H28.3283H28.3807L28.4331 38.2485L28.4855 38.231L28.5379 38.2136L28.6078 38.1961L28.6776 38.1786L28.7475 38.1612L28.8174 38.1437L28.8872 38.1262L28.9571 38.1088L29.0444 38.0913H29.1317H29.2191L29.6208 42.8418H29.6033H29.5858H29.5684H29.5509H29.5334H29.516H29.481H29.4461H29.4112H29.3763H29.3413H29.3064H29.254L29.2016 42.8593L29.1492 42.8767L29.0968 42.8942L29.0444 42.9117L28.9746 42.9291L28.9047 42.9466L28.8348 42.9641L28.765 42.9815L28.6951 42.999L28.6252 43.0165L28.5379 43.0339H28.4506H28.3633H28.2759H28.1886H28.1013H28.014H27.9266H27.8219H27.7869ZM21.8139 38.266H27.7869V43.0339H21.8139V38.266ZM22.233 39.4187L17.9366 41.4795L20.1372 38.0738H20.242H20.3468H20.4516H20.5389L20.6262 38.0913L20.7136 38.1088L20.8009 38.1262L20.8882 38.1437L20.9581 38.1612L21.0279 38.1786L21.0978 38.1961L21.1676 38.2136L21.22 38.231L21.2724 38.2485H21.3248H21.3772H21.4296H21.4646H21.4995H21.5344H21.5693H21.6043H21.6217H21.6567H21.6916H21.7091H21.7265H21.744H21.7789H21.7964H21.8313H21.8663V43.0165H21.7615H21.6567H21.5519H21.4471H21.3423H21.2375L21.1502 42.999L21.0629 42.9815L20.9755 42.9641L20.8882 42.9466L20.8183 42.9291L20.7485 42.9117L20.6786 42.8942L20.6088 42.8767L20.5389 42.8593L20.4865 42.8418L20.4341 42.8244L20.3817 42.8069H20.3293H20.2944H20.2595H20.2245H20.1896H20.1547H20.1372H20.1197H20.1023H20.0848H20.0673H20.0499H20.0324H20.0149L22.2156 39.4012L22.233 39.4187ZM17.9366 41.4795L16.2599 37.9865L20.1372 38.0738L17.9366 41.4795ZM23.1063 44.9027L18.3907 45.5838L18.3732 45.479L18.3558 45.3743L18.3383 45.252L18.3208 45.1123L18.3034 44.9726L18.2859 44.8154L18.2684 44.6582L18.251 44.4835L18.2335 44.3089L18.216 44.1342L18.1986 43.9421L18.1811 43.75L18.1636 43.5579L18.1462 43.3658L18.1287 43.1737L18.1113 42.9815L18.0938 42.7894L18.0763 42.5973L18.0589 42.4052L18.0414 42.2305L18.0239 42.0559L18.0065 41.8987L17.989 41.7415L17.9715 41.6018L17.9541 41.4795L17.9366 41.3747L17.9191 41.2874L17.9017 41.2176V41.1826L17.9191 41.27L18.0239 41.5145L22.3203 39.4536L22.4426 39.7854L22.495 39.995L22.5299 40.1522L22.5649 40.3094L22.5998 40.4491L22.6173 40.6063L22.6347 40.7635L22.6522 40.9207L22.6696 41.0953L22.6871 41.27L22.7046 41.4446L22.722 41.6367L22.7395 41.8288L22.757 42.021L22.7744 42.2131L22.7919 42.4227L22.8094 42.6322L22.8268 42.8418L22.8443 43.0339L22.8618 43.226L22.8792 43.4182L22.8967 43.6103L22.9142 43.7849L22.9316 43.9596L22.9491 44.1342L22.9666 44.2914L22.984 44.4311L23.0015 44.5709L23.0189 44.6931L23.0364 44.7979L23.0539 44.8852V44.9376L23.1063 44.9027ZM23.7525 49.531L19.002 49.8803V49.7755L18.9845 49.6707L18.967 49.5484L18.9496 49.4262L18.9321 49.3039L18.9146 49.1817L18.8972 49.0419L18.8797 48.9022L18.8623 48.7625L18.8448 48.6228L18.8273 48.483L18.8099 48.3433L18.7924 48.2036L18.7749 48.0639L18.7575 47.9242L18.74 47.7844L18.7225 47.6273L18.7051 47.4875L18.6876 47.3478L18.6701 47.2081L18.6527 47.0684L18.6352 46.9287L18.6177 46.7889L18.6003 46.6492L18.5828 46.5095L18.5653 46.3698L18.5479 46.2301L18.5304 46.1078L18.5129 45.9855L18.4955 45.8633L18.478 45.741L18.4606 45.6188L23.1761 44.9376L23.1936 45.0424L23.2111 45.1472L23.2285 45.252L23.246 45.3743L23.2635 45.4965L23.2809 45.6188L23.2984 45.7585L23.3159 45.8982L23.3333 46.0379L23.3508 46.1777L23.3683 46.3174L23.3857 46.4571L23.4032 46.6143L23.4206 46.7715L23.4381 46.9287L23.4556 47.0858L23.473 47.243L23.4905 47.4002L23.508 47.5574L23.5254 47.7146L23.5429 47.8718L23.5604 48.029L23.5778 48.1861L23.5953 48.3433L23.6128 48.5005L23.6302 48.6577L23.6477 48.8149L23.6652 48.9721L23.6826 49.1293L23.7001 49.2864L23.7176 49.4436L23.735 49.6008L23.7525 49.531ZM21.6741 47.767V52.535H21.6217H21.5693H21.5169H21.4471H21.3772H21.2724L21.1502 52.5175L21.0105 52.5L20.8358 52.4651L20.5913 52.3778L20.3468 52.2555L20.0673 52.0809L19.7704 51.8364L19.5259 51.5569L19.3163 51.2425L19.1766 50.9456L19.0893 50.6837L19.0369 50.4566L19.0194 50.3169L19.002 50.1946V50.0898V50.0374V49.9851V49.9501V49.9327V49.9152V49.8977L23.7525 49.5484V49.6357V49.7056V49.7755V49.8453V49.8977V49.9501V49.9851V50.02V50.0025V49.9327V49.8453L23.735 49.7231L23.7001 49.531L23.6302 49.3039L23.508 49.0245L23.3159 48.7276L23.0888 48.4656L22.8094 48.2385L22.5474 48.0814L22.3203 47.9766L22.0933 47.9067L21.9361 47.8718L21.8313 47.8543L21.744 47.8368H21.6916H21.6567H21.6741V47.767Z" fill="black"/>
<path fill-rule="evenodd" clip-rule="evenodd" d="M21.6917 50.1598H27.8918C28.3459 50.1598 28.3634 48.7801 28.4682 48.0116C28.6428 46.7367 29.4113 41.2701 29.4113 40.4492C28.8349 40.5016 28.5031 40.6588 27.787 40.6588H21.814C21.0804 40.6588 20.6962 40.4667 20.1024 40.4492C20.277 40.7985 20.6438 44.4487 20.7661 45.2521C20.9232 46.3874 21.29 48.3958 21.3948 49.7232C21.4297 50.1424 21.3075 50.1773 21.6917 50.1773V50.1598Z" fill="#FEE500"/>
<path d="M10.2865 52.5347H5.43115V47.7667H10.2865V52.5347ZM8.41768 48.2732L13.1507 48.7797V48.8146V48.8495V48.9019V48.9543V49.0067V49.0766V49.1464V49.2163V49.3036V49.391L13.1333 49.4783L13.1158 49.5656L13.0983 49.6704L13.0809 49.7752L13.0634 49.88L13.0459 49.9848L13.0285 50.107L12.9935 50.2293L12.9586 50.3515L12.9237 50.4913L12.8713 50.6484L12.8014 50.8056L12.7141 50.9803L12.6093 51.1724L12.4696 51.382L12.2949 51.609L12.0854 51.8361L11.8059 52.0631L11.4741 52.2727L11.0898 52.4299L10.6881 52.5347L10.2865 52.5696V47.8016L9.95461 47.8191L9.62278 47.9064L9.30841 48.0287L9.02896 48.1859L8.81938 48.3605L8.66219 48.5177L8.53994 48.6749L8.45261 48.7971L8.40022 48.9019L8.36529 48.9893L8.34782 49.0417L8.33036 49.094L8.31289 49.129V49.1115V49.094V49.0591V49.0242V48.9893V48.9369V48.8845V48.8321V48.7797V48.7273V48.6574V48.5876V48.5177V48.4478V48.378V48.3081L8.41768 48.2732ZM8.67966 46.3171L13.3952 46.9808V47.0506L13.3778 47.1205V47.1903V47.2427V47.2951L13.3603 47.365V47.4174V47.4698V47.5397V47.592V47.6444V47.6968V47.7492V47.8016V47.854V47.9064V47.9588V48.0112V48.0636V48.116V48.1684V48.2208V48.2732V48.3256V48.378V48.4304V48.4828V48.5352V48.5876V48.64V48.6924V48.7447L8.62726 48.2383V48.1684V48.0985V48.0287V47.9763V47.9064V47.8366V47.7842V47.7143V47.6444V47.592V47.5222V47.4523V47.3999V47.3475V47.2951V47.2427V47.1903V47.138V47.0856V47.0157V46.9633V46.9109V46.8585V46.8061L8.64473 46.7363V46.6839V46.6315V46.5616L8.66219 46.4917L8.67966 46.4219V46.3695L8.69712 46.2996L8.67966 46.3171ZM11.509 45.1469V40.379L13.8843 42.7542V42.8939V43.0162V43.1384V43.2607L13.8668 43.383L13.8493 43.5052L13.8319 43.6449L13.8144 43.7847L13.7969 43.9244L13.7795 44.0641L13.762 44.2038L13.7445 44.3435L13.7271 44.4833L13.7096 44.623L13.6921 44.7802L13.6747 44.9374L13.6572 45.0945L13.6398 45.2517L13.6223 45.3914L13.6048 45.5312L13.5874 45.6709L13.5699 45.8106L13.5524 45.9503L13.535 46.09L13.5175 46.2123L13.5 46.3346L13.4826 46.4568L13.4651 46.5791L13.4476 46.6839L13.4302 46.7887L13.4127 46.876L13.3952 46.9633L8.67966 46.2996L8.69712 46.2123L8.71459 46.1075L8.73206 46.0027L8.74952 45.8979L8.76699 45.7757L8.78445 45.6534L8.80192 45.5312L8.81938 45.4089L8.83685 45.2867L8.85431 45.1469L8.87178 45.0072L8.88924 44.8675L8.90671 44.7278L8.92417 44.588L8.94164 44.4483L8.9591 44.3086L8.97657 44.1689L8.99403 44.0292L9.0115 43.8894L9.02896 43.7497L9.04643 43.6275L9.06389 43.5052L9.08136 43.383L9.09882 43.2607L9.11629 43.1559L9.13375 43.0511V42.9638V42.8765V42.8066V42.7542V42.7193V42.7018L11.509 45.0771V45.1469ZM11.509 40.379H13.8843V42.7542L11.509 40.379ZM10.1991 45.2517V40.4837H10.2341H10.269H10.3039H10.3214H10.3388H10.3563H10.3738H10.3912H10.4087H10.4262H10.4436H10.4611H10.4786H10.496H10.531H10.5484H10.5834H10.6183H10.6707H10.7231H10.7755H10.8279H10.8803H10.9501H11.02H11.0898H11.1597H11.2296H11.3169H11.3868H11.4566H11.5439V45.2517H11.5265H11.509H11.4915H11.4741H11.4566H11.4391H11.4217H11.4042H11.3868H11.3693H11.3518H11.3344H11.3169H11.2994H11.282H11.247H11.2121H11.1772H11.1248H11.0724H11.02H10.9676H10.9152H10.8453H10.7755H10.7056H10.6358H10.5659H10.4786H10.4087H10.3388H10.2515H10.1991ZM6.61878 42.6669H1.8508L5.2565 40.5187L5.08185 40.4488L4.99452 40.4314H4.97706H5.01199L5.08185 40.4488L5.18664 40.4663L5.30889 40.4837L5.44861 40.5012L5.6058 40.5187L5.78045 40.5361H5.97257H6.16468H6.37427H6.58385H6.81089H7.03794H7.26499H7.49203H7.71908H7.94613H8.17317H8.40022H8.6098H8.81938H9.0115H9.20361H9.39573H9.57038H9.72757H9.88475H10.0245H10.1467V45.3041H10.0594H9.93715H9.79743H9.64024H9.46559H9.29094H9.09882H8.88924H8.67966H8.45261H8.22557H7.99852H7.75401H7.5095H7.26499H7.02047H6.77596H6.53145H6.28694H6.04243H5.79792L5.5534 45.2867L5.32636 45.2692L5.09931 45.2517L4.87226 45.2343L4.64522 45.2168L4.43564 45.1993L4.22606 45.1644L3.99901 45.1295L3.7545 45.0771L3.47506 44.9897L3.14322 44.85L6.54892 42.7018L6.61878 42.6669ZM1.8508 42.6669V38.877L5.2565 40.5187L1.8508 42.6669ZM6.81089 44.2737L2.09531 44.9024V44.85V44.7976V44.7452V44.6928V44.6404V44.588V44.5357V44.4833L2.07785 44.4309V44.3785V44.3261L2.06038 44.2562V44.2038V44.1514L2.04292 44.0816L2.02545 44.0117L2.00799 43.9418L1.99052 43.872L1.97306 43.8021L1.95559 43.7323V43.6624V43.5925V43.5227V43.4528V43.3655V43.2782V43.1908V43.1035V43.0162V42.9289V42.8415V42.7542V42.6669H6.72357V42.7018V42.7367V42.7717V42.8066V42.8415V42.8765V42.9114V42.9463V42.9813V43.0337V43.086V43.1384V43.1908V43.2432V43.2956V43.348V43.4004V43.4528V43.5052V43.5576V43.61V43.6624L6.74103 43.7323L6.7585 43.8021V43.8545L6.77596 43.9244L6.79343 43.9942V44.0641L6.81089 44.134L6.82836 44.2038V44.2737V44.3435V44.2911L6.81089 44.2737ZM2.09531 44.9024V44.8675V44.85V44.9024ZM2.74152 49.7228L2.09531 44.9024L6.81089 44.2737L7.4571 49.094V49.1115L2.72406 49.7228H2.74152ZM5.46608 47.7667V52.5347H5.29143L5.09931 52.5172L4.88973 52.4823L4.66268 52.4299L4.43564 52.36L4.20859 52.2552L3.98154 52.1155L3.77196 51.9583L3.56238 51.7837L3.38773 51.5916L3.23054 51.3994L3.10829 51.2073L3.02096 51.0327L2.9511 50.858L2.89871 50.7008L2.86378 50.5611L2.82885 50.4389L2.81138 50.3341L2.79392 50.2293L2.77645 50.142L2.75899 50.0721V50.0022V49.9324V49.88V49.845V49.8101V49.7752V49.7577V49.7403V49.7228V49.7053L7.49203 49.1115V49.1814V49.2512V49.3036V49.356V49.4084V49.4434L7.47457 49.391L7.4571 49.3211L7.42217 49.2338L7.38724 49.129L7.33485 49.0067L7.26499 48.867L7.17766 48.7273L7.0554 48.5701L6.91568 48.4129L6.74103 48.2732L6.56638 48.1509L6.37427 48.0461L6.18215 47.9588L6.0075 47.9064L5.85031 47.8715L5.69313 47.854L5.57087 47.8366H5.46608V47.7667Z" fill="black"/>
<path fill-rule="evenodd" clip-rule="evenodd" d="M5.43089 50.1594H10.2862C10.7228 50.1594 10.7403 49.094 10.7927 48.5352C10.8625 47.9064 10.9324 47.3475 11.0372 46.6489C11.1595 45.7582 11.5088 43.5052 11.5088 42.7542C10.9324 42.7542 10.8101 42.859 10.1989 42.859C9.09857 42.859 4.95933 42.9987 4.2258 42.6494C4.2258 43.2782 4.36552 43.9418 4.43538 44.5706L5.08159 49.391C5.13399 49.7926 5.06412 50.142 5.44836 50.142L5.43089 50.1594Z" fill="#FAFAFA"/>
<path d="M0.0174651 38.4233V31.2451H4.78544V38.4233H0.0174651ZM5.02995 38.8774V43.6454H4.76798L4.506 43.6279L4.26149 43.593L4.01698 43.5406L3.77247 43.4707L3.54542 43.4009L3.31837 43.3135L3.09133 43.2087L2.88174 43.1039L2.67216 42.9817L2.48005 42.8594L2.28793 42.7197L2.09581 42.58L1.92116 42.4403L1.74651 42.2831L1.57186 42.1259L1.41467 41.9512L1.25749 41.7766L1.1003 41.5845L0.960581 41.3924L0.82086 41.1828L0.698605 40.9732L0.576349 40.7462L0.471558 40.5191L0.366767 40.2921L0.279442 40.0475L0.209581 39.803L0.139721 39.5411L0.0873256 39.2791L0.0523953 39.0171L0.0349302 38.7377V38.4582H4.80291V38.4757V38.4932V38.5106V38.5281V38.5456V38.563V38.5805L4.82037 38.5979L4.83784 38.6154L4.8553 38.6329L4.87277 38.6503L4.89023 38.6853L4.9077 38.7202L4.92516 38.7377L4.94263 38.7551L4.96009 38.7726L4.97756 38.7901L4.99502 38.8075L5.01249 38.825L5.02995 38.8425L5.04742 38.8599L5.06488 38.8774L5.08235 38.8949H5.04742H5.01249L5.02995 38.8774ZM10.6887 43.6454H5.02995V38.8774H10.6887V43.6454ZM10.9332 38.6329H15.7011L15.6837 38.9123L15.6487 39.1743L15.6138 39.4363L15.5614 39.6808L15.4916 39.9253L15.4042 40.1523L15.3169 40.3794L15.2121 40.6064L15.1073 40.816L14.9851 41.0081L14.8628 41.2002L14.7231 41.3924L14.5834 41.567L14.4437 41.7417L14.2865 41.9163L14.1293 42.0735L13.9721 42.2307L13.7974 42.3879L13.6228 42.5276L13.4481 42.6673L13.256 42.7896L13.0639 42.9118L12.8543 43.0341L12.6447 43.1389L12.4352 43.2437L12.2081 43.331L11.9811 43.4183L11.7366 43.4882L11.492 43.5406L11.2301 43.5755L10.9681 43.6104L10.6887 43.6279V38.8599H10.6363H10.6013H10.5664H10.5489L10.5664 38.8425L10.5839 38.825L10.6188 38.8075L10.6537 38.7901L10.6887 38.7726L10.7236 38.7551L10.7585 38.7377L10.7934 38.7027L10.8284 38.6678L10.8633 38.6329L10.8808 38.5979L10.8982 38.563L10.9157 38.5281L10.9332 38.5106L10.9506 38.4932L10.9681 38.4757V38.5106V38.5456V38.5979L10.9332 38.6329ZM15.7011 31.053V38.6329H10.9332V31.053H15.7011ZM10.4791 30.8085V26.0405H10.7585L11.038 26.058L11.3174 26.0929L11.5794 26.1453L11.8413 26.2152L12.0859 26.285L12.3304 26.3724L12.5574 26.4772L12.7845 26.5819L13.0115 26.7042L13.2211 26.8265L13.4307 26.9662L13.6228 27.1059L13.8149 27.2456L13.9896 27.4028L14.1642 27.56L14.3214 27.7346L14.4786 27.9093L14.6183 28.0839L14.758 28.2761L14.8977 28.4682L15.02 28.6603L15.1423 28.8699L15.247 29.0795L15.3518 29.289L15.4392 29.5161L15.509 29.7431L15.5789 29.9876L15.6313 30.2322L15.6662 30.4767L15.6837 30.7386V31.0006H10.9157V31.053V31.0879L10.8982 31.0705L10.8808 31.053L10.8633 31.0355L10.8458 31.0181L10.8284 31.0006L10.8109 30.9832L10.7934 30.9657L10.776 30.9482L10.741 30.9308L10.7061 30.9133L10.6712 30.8958L10.6537 30.8784L10.6188 30.8609L10.6013 30.8434L10.5839 30.826L10.5664 30.8085H10.5489H10.5315H10.514H10.4965H10.4791ZM5.11728 26.0405H10.4791V30.8085H5.11728V26.0405ZM4.76798 31.2626H0V30.9657L0.0174651 30.6862L0.0523953 30.4068L0.104791 30.1274L0.174651 29.8654L0.261977 29.6034L0.349302 29.3589L0.454093 29.1144L0.576349 28.8873L0.698605 28.6603L0.838326 28.4507L0.978046 28.2411L1.13523 28.049L1.29242 27.8569L1.4496 27.6822L1.62426 27.5076L1.79891 27.3504L1.97356 27.1932L2.16567 27.0535L2.35779 26.9138L2.54991 26.7915L2.75949 26.6693L2.96907 26.5645L3.17865 26.4597L3.38823 26.3724L3.61528 26.285L3.84233 26.2152L4.08684 26.1453L4.33135 26.0929L4.57586 26.058L4.83784 26.0405H5.09981V30.8085H5.13474L5.11728 30.826L5.09981 30.8434L5.06488 30.8609L5.02995 30.8784L4.99502 30.8958L4.96009 30.9133L4.92516 30.9308L4.89023 30.9482L4.87277 30.9657L4.8553 31.0006L4.83784 31.0355L4.82037 31.053L4.80291 31.0705L4.78544 31.0879L4.76798 31.1054L4.75051 31.1229V31.1403V31.1578V31.1753V31.1927V31.2102V31.2277L4.76798 31.2626Z" fill="black"/>
<path fill-rule="evenodd" clip-rule="evenodd" d="M2.39282 31.2277V38.4058C2.39282 39.9602 3.8075 41.2352 5.03005 41.2352H10.6888C11.9288 41.2352 13.326 39.838 13.326 38.598V31.0181C13.326 29.8305 12.051 28.3809 10.4966 28.3809H5.13485C3.92975 28.3809 2.41029 29.6034 2.41029 31.2102L2.39282 31.2277Z" fill="#FAFAFA"/>
<path d="M6.53171 24.0669L3.16094 27.4202L3.02122 27.2805L2.89897 27.1408L2.77671 27.0011L2.65445 26.8613L2.5322 26.7216L2.40994 26.5819L2.30515 26.4247L2.20036 26.2675L2.09557 26.1103L1.99078 25.9532L1.90345 25.796L1.81613 25.6213L1.7288 25.4467L1.64148 25.272L1.57162 25.0974L1.50176 24.9227L1.44936 24.7481L1.39697 24.5734L1.34457 24.3988L1.30964 24.2241L1.27471 24.0495L1.23978 23.8748L1.22231 23.7002L1.20485 23.5255L1.18738 23.3509L1.16992 23.1937L1.15245 23.0365V22.8793V22.7221V22.5649V22.4077V22.2506H5.92043V22.3728V22.4951V22.6173V22.7221V22.8094V22.8968V22.9841V23.0539V23.1238V23.1762V23.2286V23.2635V23.2985V23.3334V23.3683V23.3858V23.4033V23.4207L5.9379 23.4382L5.95536 23.4556L5.97283 23.4731L5.99029 23.508L6.00776 23.543L6.02522 23.5779L6.06015 23.6128L6.09508 23.6652L6.13001 23.7176L6.18241 23.77L6.2348 23.8399L6.30466 23.9097L6.37452 23.9796L6.46185 24.0669H6.53171ZM9.90248 22.5649L14.6705 22.7046L14.6355 23.2461L14.5657 23.77L14.4609 24.2765L14.3211 24.7655L14.1465 25.2371L13.9369 25.6912L13.6924 26.1278L13.413 26.5295L13.1161 26.9137L12.8017 27.263L12.4524 27.5949L12.0856 27.8918L11.7014 28.1712L11.2997 28.4157L10.8805 28.6428L10.4614 28.8349L10.0247 28.9921L9.57064 29.1318L9.11655 29.2366L8.64499 29.3065L8.17343 29.3414H7.70187L7.23031 29.3239L6.74129 29.2541L6.25227 29.1493L5.78071 29.0096L5.30915 28.8349L4.85506 28.6253L4.40096 28.3808L3.96434 28.0839L3.54517 27.7521L3.16094 27.3853L6.53171 24.032L6.65396 24.1368L6.77622 24.2241L6.89848 24.3114L7.02073 24.3813L7.14299 24.4337L7.26524 24.4861L7.3875 24.521L7.50976 24.5385L7.64948 24.5559H7.7892H7.92892L8.06864 24.5385L8.20836 24.521L8.34808 24.4861L8.4878 24.4512L8.62752 24.3988L8.76724 24.3289L8.90696 24.259L9.02922 24.1717L9.15148 24.0844L9.25627 23.9971L9.36106 23.8923L9.46585 23.7875L9.55317 23.6652L9.6405 23.543L9.71036 23.4207L9.78022 23.281L9.83262 23.1413L9.88501 23.0016L9.91994 22.8444L9.93741 22.6697L9.95487 22.4951L9.90248 22.5649ZM8.67992 20.7486L10.8107 16.4871L11.0202 16.5919L11.2298 16.7141L11.4219 16.8364L11.6141 16.9586L11.8062 17.0983L11.9983 17.2381L12.1904 17.3778L12.3651 17.535L12.5397 17.6922L12.7144 17.8493L12.8715 18.024L13.0287 18.1986L13.1859 18.3733L13.3256 18.5654L13.4654 18.7575L13.6051 18.9496L13.7273 19.1418L13.8496 19.3513L13.9718 19.5609L14.0766 19.7705L14.1814 19.9976L14.2688 20.2246L14.3561 20.4516L14.4259 20.6787L14.4958 20.9232L14.5482 21.1677L14.6006 21.4122L14.6355 21.6567L14.6705 21.9013L14.6879 22.1632V22.4252V22.6872L9.91994 22.5475V22.4776V22.4077V22.3379V22.268L9.90248 22.1982L9.88501 22.1283L9.86755 22.0584L9.85008 21.9886L9.83262 21.9187L9.81515 21.8489L9.79769 21.7965L9.76276 21.7441L9.72783 21.6917L9.69289 21.6393L9.65796 21.5869L9.62303 21.5345L9.5881 21.4821L9.55317 21.4297L9.50078 21.3773L9.44838 21.3249L9.39599 21.2725L9.34359 21.2201L9.2912 21.1677L9.2388 21.1153L9.16894 21.0629L9.09908 21.0105L9.02922 20.9581L8.95936 20.9057L8.8895 20.8533L8.81964 20.8184L8.74978 20.7835L8.67992 20.7486ZM5.8855 22.2331H1.11752L1.13499 21.7965L1.18738 21.3773L1.25724 20.9581L1.36203 20.5564L1.50176 20.1722L1.65894 19.788L1.83359 19.4212L2.02571 19.0719L2.25276 18.7401L2.49727 18.4257L2.75924 18.1288L3.03869 17.8493L3.31813 17.5699L3.61503 17.3079L3.92941 17.0634L4.26124 16.8364L4.61055 16.6268L4.95985 16.4347L5.32662 16.2775L5.71085 16.1378L6.09508 16.0155L6.49678 15.9107L6.91594 15.8409L7.3351 15.7885L7.77173 15.771H8.20836L8.64499 15.8059L9.08162 15.8758L9.51824 15.9806L9.95487 16.1028L10.3915 16.26L10.8107 16.4521L8.67992 20.7136L8.55766 20.6612L8.43541 20.6088L8.31315 20.5739L8.19089 20.5564L8.06864 20.539L7.94638 20.5215H7.82413H7.70187L7.57962 20.539L7.45736 20.5564L7.3351 20.5914L7.21285 20.6263L7.09059 20.6787L6.96834 20.7311L6.84608 20.7835L6.74129 20.8533L6.6365 20.9232L6.53171 20.9931L6.42692 21.0804L6.33959 21.1677L6.25227 21.255L6.18241 21.3424L6.11255 21.4297L6.04269 21.517L5.99029 21.6043L5.9379 21.6917L5.90296 21.779L5.86803 21.8663L5.85057 21.9536L5.8331 22.0235V22.0934V22.1632L5.8855 22.2331Z" fill="black"/>
<path fill-rule="evenodd" clip-rule="evenodd" d="M3.51035 22.2333C3.51035 23.8401 3.66753 24.5736 4.85516 25.7438C7.52732 28.4159 12.1905 26.4948 12.2953 22.6175C12.3477 20.8535 11.2649 19.369 9.74539 18.618C6.81125 17.1509 3.51035 19.5436 3.51035 22.2333Z" fill="#FAFAFA"/>
<path d="M15.4918 35.0698V26.8787H20.2598V35.0698H15.4918ZM20.6964 36.2924L17.7798 40.0648L17.6226 39.9426L17.4828 39.8203L17.3431 39.6806L17.2209 39.5409L17.0986 39.4012L16.9764 39.2614L16.8716 39.1217L16.7668 38.982L16.662 38.8423L16.5572 38.7026L16.4699 38.5454L16.3825 38.3882L16.2952 38.231L16.2254 38.0738L16.1555 37.9166L16.0856 37.7594L16.0158 37.6023L15.9459 37.4451L15.8935 37.2879L15.8411 37.1307L15.7887 36.9735L15.7363 36.7989L15.7014 36.6417L15.6665 36.467L15.6315 36.2924L15.5966 36.1177L15.5791 35.9431L15.5617 35.7684L15.5442 35.5938L15.5268 35.4191V35.2445V35.0698H20.2947V35.1047V35.1571V35.2095V35.2619V35.3143V35.3667L20.3122 35.4191L20.3297 35.4715L20.3471 35.5239L20.3646 35.5763L20.3821 35.6287L20.3995 35.6811L20.417 35.7335L20.4344 35.7859L20.4519 35.8383L20.4694 35.8907L20.4868 35.9431L20.5043 35.9955L20.5218 36.0304L20.5392 36.0653L20.5567 36.1003L20.5742 36.1352L20.5916 36.1701L20.6091 36.205L20.6266 36.2225L20.644 36.24L20.6615 36.2574L20.679 36.2749L20.6964 36.2924ZM22.7398 36.7465V41.5144H22.5652H22.3905H22.2159H22.0412H21.8841H21.7269L21.5697 41.497L21.4125 41.4795L21.2553 41.462L21.0981 41.4446L20.9409 41.4271L20.7838 41.4097L20.6266 41.3747L20.4694 41.3398L20.3122 41.3049L20.155 41.2699L19.9978 41.2175L19.8406 41.1651L19.6835 41.1127L19.5263 41.0603L19.3691 40.9905L19.2119 40.9206L19.0547 40.8508L18.8975 40.7809L18.7403 40.6936L18.6006 40.6063L18.4609 40.5189L18.3212 40.4316L18.1814 40.3443L18.0417 40.257L17.9195 40.1696L17.7972 40.0648L20.7139 36.2924L20.7663 36.3273L20.8187 36.3622L20.8711 36.3972L20.9235 36.4321L20.9584 36.467L20.9933 36.4845L21.0283 36.502L21.0632 36.5194L21.0981 36.5369L21.1331 36.5543L21.168 36.5718L21.2029 36.5893L21.2378 36.6067L21.2728 36.6242L21.3077 36.6417L21.3426 36.6591L21.3776 36.6766L21.43 36.6941L21.4824 36.7115L21.5348 36.729L21.6046 36.7465L21.6745 36.7639L21.7443 36.7814H21.8317H21.919H22.0238H22.1286H22.2334H22.3556H22.4779H22.6176H22.7573L22.7398 36.7465ZM28.6605 36.4845L31.7518 40.1172L31.4549 40.3443L31.1406 40.5364L30.8262 40.711L30.5118 40.8508L30.1975 40.973L29.8831 41.0778L29.5862 41.1651L29.2893 41.235L28.9924 41.3049L28.6955 41.3573L28.3985 41.4097L28.1016 41.4446L27.8047 41.4795L27.5078 41.497L27.2109 41.5144L26.914 41.5319L26.6171 41.5494H26.3202H26.0233H25.7264H25.4469H25.1675H24.8881H24.6261H24.3641H24.1021H23.8576H23.6131H23.3861H23.159H22.9494H22.7573V36.7814H22.9844H23.2289H23.4734H23.7179H23.9624H24.2069H24.4514H24.7134H24.9754H25.2374H25.4819H25.7264H25.9709H26.2154H26.4599H26.687L26.914 36.7639L27.1411 36.7465L27.3506 36.729L27.5602 36.7115L27.7523 36.6941L27.927 36.6591L28.0842 36.6242L28.2239 36.5893L28.3461 36.5543L28.4509 36.5194L28.5383 36.4845L28.6081 36.4496L28.6431 36.4321L28.6605 36.4146L28.6256 36.4321L28.6605 36.4845ZM29.2718 35.5938H34.0398V35.8033L34.0223 36.0129L34.0048 36.2225L33.9699 36.4146L33.935 36.6067L33.9001 36.7989L33.8477 36.991L33.7953 37.1656L33.7429 37.3403L33.673 37.5149L33.6031 37.6896L33.5333 37.8468L33.4634 38.004L33.3761 38.1611L33.2888 38.3009L33.2015 38.4406L33.1141 38.5803L33.0268 38.72L32.9395 38.8423L32.8521 38.9645L32.7648 39.0868L32.6775 39.209L32.5902 39.3138L32.5028 39.4186L32.4155 39.5234L32.3282 39.6282L32.2409 39.7155L32.1535 39.8029L32.0662 39.8902L31.9789 39.9775L31.8916 40.0648L31.8042 40.1347L28.7129 36.502L28.7478 36.467L28.7828 36.4321L28.8177 36.3972L28.8526 36.3622L28.8876 36.3273L28.9225 36.2924L28.9574 36.2574L28.9924 36.2225L29.0273 36.1876L29.0622 36.1526L29.0797 36.1177L29.1146 36.0828L29.1321 36.0479L29.1495 36.0129L29.167 35.978L29.1845 35.9431L29.2019 35.9081L29.2194 35.8732L29.2369 35.8557L29.2543 35.8208L29.2718 35.7859V35.7684V35.751V35.7335V35.716V35.6986V35.6811V35.6636V35.6462V35.6287V35.6112V35.5938ZM34.0398 26.2849V35.5938H29.2718V26.2849H34.0398ZM28.1191 25.3243V20.5563L28.4335 20.5738L28.7478 20.6087L29.0622 20.6611L29.3591 20.731L29.656 20.8183L29.9355 20.9056L30.2149 21.0104L30.4769 21.1326L30.7389 21.2549L30.9834 21.3946L31.2279 21.5518L31.4549 21.709L31.682 21.8662L31.8916 22.0408L32.1012 22.2155L32.2933 22.4076L32.4854 22.5997L32.66 22.8093L32.8347 23.0189L32.9919 23.2285L33.1491 23.4555L33.2888 23.6826L33.411 23.9096L33.5333 24.1541L33.6381 24.3986L33.7429 24.6431L33.8302 24.9051L33.9001 25.1671L33.9699 25.4465L34.0223 25.726L34.0572 26.0229L34.0747 26.3198H29.3067L29.2893 26.2849L29.2718 26.2499L29.2543 26.215L29.2369 26.1626L29.2019 26.1102L29.167 26.0578L29.1321 26.0054L29.0971 25.953L29.0448 25.9006L28.9924 25.8482L28.94 25.7958L28.8876 25.7434L28.8352 25.691L28.7828 25.6386L28.7304 25.5863L28.678 25.5513L28.6256 25.5164L28.5732 25.4815L28.5208 25.4465L28.4684 25.4291L28.416 25.4116L28.3636 25.3941L28.3287 25.3767H28.2938H28.2588H28.2239H28.189L28.1191 25.3243ZM21.5348 20.5563H28.1191V25.3243H21.5348V20.5563ZM20.2773 26.8787H15.5093V26.5643L15.5268 26.2499L15.5617 25.953L15.6141 25.6561L15.6839 25.3592L15.7538 25.0623L15.8411 24.7829L15.9459 24.5034L16.0682 24.224L16.1904 23.962L16.3301 23.7L16.4699 23.4555L16.6271 23.211L16.8017 22.9665L16.9764 22.7394L17.1685 22.5124L17.3781 22.3028L17.5876 22.0932L17.8147 21.9011L18.0417 21.709L18.2862 21.5343L18.5482 21.3772L18.8102 21.22L19.0896 21.0803L19.3691 20.958L19.666 20.8532L19.9629 20.7659L20.2598 20.6786L20.5742 20.6087L20.8885 20.5563L21.2029 20.5214L21.5348 20.5039V25.2719H21.4824H21.43H21.3776L21.3252 25.2893L21.2728 25.3068L21.2204 25.3243L21.168 25.3417L21.1156 25.3592L21.0632 25.3767L21.0108 25.4116L20.9584 25.4465L20.906 25.4815L20.8536 25.5164L20.8012 25.5688L20.7488 25.6212L20.6964 25.6736L20.644 25.726L20.5916 25.7784L20.5392 25.8482L20.5043 25.9181L20.4694 25.988L20.4344 26.0578L20.3995 26.1277L20.3646 26.1975L20.3297 26.2674L20.3122 26.3373L20.2947 26.4071L20.2773 26.4944L20.2598 26.5818L20.2423 26.6691V26.7564V26.8437L20.2773 26.8787Z" fill="black"/>
<path fill-rule="evenodd" clip-rule="evenodd" d="M17.8843 26.8786V35.0698C17.8843 36.2399 18.4082 37.5149 19.2466 38.1611C20.2421 38.9296 21.0629 39.1042 22.7396 39.1042C24.9926 39.1042 28.8 39.4535 30.1972 38.2659C30.8783 37.6895 31.6468 36.7639 31.6468 35.5588V26.2499C31.6468 24.7828 30.0051 22.9141 28.1014 22.9141H21.517C19.4911 22.9141 17.8668 24.7828 17.8668 26.8612L17.8843 26.8786Z" fill="#FAFAFA"/>
<path d="M24.4518 18.7399V23.5079L24.0675 23.4904L23.6833 23.4555L23.2991 23.4031L22.9323 23.3332L22.5655 23.2459L22.1988 23.1411L21.8495 23.0189L21.5002 22.8791L21.1683 22.722L20.8365 22.5473L20.5221 22.3552L20.2252 22.1456L19.9283 21.9186L19.6488 21.6741L19.3694 21.4295L19.1074 21.1676L18.8629 20.8881L18.6184 20.5912L18.3914 20.2943L18.1818 19.9799L17.9897 19.6481L17.815 19.3163L17.6404 18.967L17.4832 18.6177L17.3435 18.2509L17.2212 17.8841L17.1164 17.4999L17.0291 17.1157L16.9592 16.714L16.9068 16.3123L16.8719 15.9106L16.8544 15.4914H21.6224V15.6835L21.6399 15.8582L21.6573 16.0328L21.6923 16.2075L21.7272 16.3821L21.7796 16.5393L21.832 16.6965L21.8844 16.8537L21.9542 17.0109L22.0241 17.1506L22.094 17.2903L22.1813 17.43L22.2686 17.5523L22.3559 17.6745L22.4433 17.7968L22.5481 17.9016L22.6528 18.0064L22.7576 18.1112L22.8624 18.1985L22.9672 18.2858L23.0895 18.3557L23.2117 18.4255L23.334 18.4954L23.4562 18.5478L23.5785 18.6002L23.7008 18.6526L23.823 18.6875L23.9453 18.7225L24.0675 18.7399L24.1898 18.7574L24.312 18.7748H24.4343L24.4518 18.7399ZM26.9493 17.9191L30.6693 20.8881L30.5122 21.0802L30.355 21.2549L30.1803 21.4295L30.0057 21.6042L29.831 21.7614L29.6389 21.9186L29.4468 22.0583L29.2547 22.198L29.0625 22.3203L28.8704 22.4425L28.6783 22.5473L28.4862 22.6521L28.2766 22.7569L28.067 22.8442L27.8575 22.9315L27.6479 23.0014L27.4383 23.0713L27.2287 23.1411L27.0191 23.1935L26.8095 23.2459L26.6 23.2983L26.3904 23.3332L26.1808 23.3682L25.9887 23.4031L25.7791 23.438L25.587 23.4555L25.3949 23.473L25.2028 23.4904L25.0106 23.5079H24.8185H24.6264H24.4343V18.7399H24.5565H24.6788H24.7836H24.8884H24.9932L25.098 18.7225L25.2028 18.705L25.3075 18.6875L25.4123 18.6701L25.5171 18.6526L25.6045 18.6351L25.6918 18.6177L25.7791 18.6002L25.8664 18.5827L25.9538 18.5653L26.0411 18.5303L26.1109 18.4954L26.1808 18.4605L26.2507 18.4255L26.3205 18.3906L26.3904 18.3557L26.4602 18.3208L26.5126 18.2858L26.565 18.2509L26.6174 18.216L26.6698 18.181L26.7222 18.1461L26.7746 18.1112L26.827 18.0762L26.8619 18.0413L26.8969 17.9889L26.9318 17.9365L26.9493 17.9191ZM27.9448 15.6661H32.7128V15.8756V16.0852L32.6953 16.2948L32.6778 16.5044L32.6604 16.6965L32.6254 16.8886L32.5905 17.0807L32.5556 17.2728L32.5032 17.465L32.4508 17.6571L32.3984 17.8317L32.346 18.0064L32.2761 18.181L32.2063 18.3557L32.1364 18.5303L32.0665 18.705L31.9967 18.8622L31.9268 19.0194L31.8395 19.1765L31.7522 19.3337L31.6649 19.4735L31.5775 19.6132L31.4902 19.7529L31.4029 19.8926L31.3155 20.0323L31.2282 20.1721L31.1409 20.2943L31.0536 20.4166L30.9662 20.5388L30.8789 20.6611L30.7916 20.7833L30.7043 20.9056L26.9842 17.9365L27.0541 17.8492L27.1239 17.7619L27.1938 17.6745L27.2462 17.6047L27.2986 17.5348L27.351 17.465L27.4034 17.3951L27.4558 17.3252L27.5082 17.2554L27.5605 17.1855L27.5955 17.1157L27.6304 17.0458L27.6653 16.9759L27.7003 16.9061L27.7352 16.8362L27.7701 16.7664L27.8051 16.6965L27.8225 16.6266L27.84 16.5568L27.8575 16.4869L27.8749 16.4345L27.8924 16.3647L27.9099 16.2948L27.9273 16.2249L27.9448 16.1551L27.9622 16.0852L27.9797 16.0154V15.9455V15.8756V15.8058V15.7185V15.6311L27.9448 15.6661ZM25.1678 12.5922V7.82422L25.5695 7.84168L25.9712 7.87661L26.3555 7.92901L26.7397 8.01634L27.1065 8.12113L27.4732 8.24338L27.8225 8.3831L28.1718 8.54029L28.5037 8.71494L28.818 8.90706L29.1324 9.09917L29.4293 9.30875L29.7262 9.5358L30.0057 9.78031L30.2676 10.0248L30.5296 10.2868L30.7741 10.5662L31.0012 10.8457L31.2108 11.1426L31.4203 11.4395L31.6125 11.7539L31.7871 12.0682L31.9443 12.4001L32.1015 12.7319L32.2412 13.0812L32.3635 13.4305L32.4682 13.7973L32.5556 14.1641L32.6254 14.5308L32.6778 14.9151L32.7128 15.2993L32.7302 15.6835H27.9622V15.5438L27.9448 15.4041L27.9273 15.2644L27.9099 15.1246L27.8749 14.9849L27.84 14.8452L27.7876 14.7055L27.7352 14.5658L27.6653 14.426L27.5955 14.2863L27.5256 14.1466L27.4383 14.0069L27.351 13.8846L27.2636 13.7624L27.1588 13.6401L27.0541 13.5178L26.9493 13.4131L26.8445 13.3083L26.7397 13.2035L26.6174 13.1161L26.4952 13.0288L26.3729 12.959L26.2507 12.8891L26.1284 12.8192L26.0062 12.7668L25.8839 12.7145L25.7616 12.6795L25.6394 12.6446L25.5171 12.6271L25.3949 12.6097L25.2726 12.5922H25.1504H25.1678ZM22.5481 13.5178L19.1424 10.182L19.2995 10.0248L19.4567 9.86764L19.6314 9.71045L19.806 9.57073L19.9807 9.43101L20.1553 9.29129L20.33 9.16903L20.5046 9.04678L20.6968 8.92452L20.8889 8.81973L21.081 8.71494L21.2731 8.61015L21.4652 8.52282L21.6573 8.4355L21.8495 8.34817L22.0416 8.27831L22.2337 8.20845L22.4258 8.15606L22.6179 8.10366L22.81 8.05127L23.0022 8.01634L23.1943 7.98141L23.3864 7.94647L23.5785 7.92901L23.7706 7.91154L23.9627 7.89408L24.1548 7.87661L24.347 7.85915H24.5391H24.7312H24.9233H25.1154V12.6271H24.9757H24.836H24.6963H24.574H24.4518H24.347L24.2422 12.6446L24.1374 12.6621L24.0501 12.6795L23.9627 12.697L23.8754 12.7145L23.8055 12.7319L23.7357 12.7494L23.6658 12.7668L23.596 12.7843L23.5436 12.8018L23.4912 12.8192L23.4388 12.8367L23.3864 12.8542L23.334 12.8891L23.2816 12.924L23.2292 12.959L23.1768 12.9939L23.1069 13.0288L23.0371 13.0812L22.9672 13.1336L22.8974 13.186L22.8275 13.2559L22.7576 13.3257L22.6703 13.3956L22.583 13.4829L22.4957 13.5702L22.5481 13.5178ZM21.6923 15.4739H16.9243V15.2644L16.9418 15.0548L16.9592 14.8452L16.9767 14.6356L17.0116 14.426L17.0465 14.2339L17.0815 14.0418L17.1339 13.8497L17.1863 13.6576L17.2387 13.4655L17.2911 13.2733L17.3609 13.0987L17.4308 12.924L17.5006 12.7494L17.5705 12.5747L17.6404 12.4175L17.7102 12.2604L17.7975 12.1032L17.8849 11.946L17.9722 11.7888L18.0595 11.6316L18.1468 11.4919L18.2342 11.3522L18.3215 11.2125L18.4263 11.0727L18.5311 10.933L18.6359 10.8108L18.7407 10.6885L18.8455 10.5662L18.9502 10.444L19.055 10.3217L19.1598 10.1995L22.5655 13.5353L22.5306 13.5702L22.4957 13.6052L22.4607 13.6401L22.4258 13.6925L22.3909 13.7449L22.3559 13.7973L22.321 13.8497L22.2861 13.9021L22.2512 13.9545L22.2162 14.0069L22.1813 14.0767L22.1464 14.1466L22.1114 14.2165L22.0765 14.2863L22.0416 14.3562L22.0066 14.426L21.9717 14.4959L21.9368 14.5658L21.9018 14.6356L21.8669 14.7055L21.8495 14.7753L21.832 14.8452L21.8145 14.9151L21.7971 14.9849L21.7796 15.0548L21.7621 15.1246L21.7447 15.1945L21.7272 15.2644V15.3342V15.3866V15.439V15.4914L21.6923 15.4739Z" fill="black"/>
<path fill-rule="evenodd" clip-rule="evenodd" d="M19.2996 15.4567C19.2996 18.6878 21.7447 21.1154 24.4518 21.1154C26.0936 21.1154 27.7527 20.6962 28.8006 19.4038C29.6564 18.3385 30.3201 17.2032 30.3201 15.6663C30.3201 12.8719 27.9274 10.1997 25.1679 10.1997C23.3515 10.1997 22.1988 10.4617 20.8366 11.8414C20.0856 12.5924 19.2996 13.9896 19.2996 15.4567Z" fill="#FEE500"/>
<path d="M33.8128 32.241V22.216H38.5808V32.241H33.8128ZM39.227 33.9875L35.4545 36.8867L35.3847 36.7819L35.3148 36.6771L35.245 36.5723L35.1751 36.4675L35.1052 36.3627L35.0354 36.2579L34.9655 36.1532L34.8957 36.0309L34.8258 35.9086L34.7559 35.7864L34.6861 35.6641L34.6162 35.5244L34.5464 35.3847L34.4765 35.245L34.4066 35.1052L34.3368 34.9655L34.2844 34.8083L34.232 34.6512L34.1796 34.494L34.1272 34.3368L34.0748 34.1796L34.0399 34.0049L34.0049 33.8303L33.97 33.6556L33.9351 33.481L33.9176 33.3063L33.9001 33.1317L33.8827 32.957L33.8652 32.7824L33.8478 32.6077V32.4156V32.2235H38.6157V32.3108V32.3982V32.4855V32.5553V32.6252V32.6951V32.7475L38.6332 32.7999L38.6507 32.8522L38.6681 32.9046L38.6856 32.957L38.7031 33.0094L38.7205 33.0618L38.738 33.0968L38.7555 33.1317L38.7729 33.1666L38.7904 33.2015L38.8078 33.2365L38.8253 33.2714L38.8428 33.3063L38.8602 33.3587L38.8777 33.4111L38.9126 33.4635L38.9476 33.5159L38.9825 33.5683L39.0174 33.6207L39.0524 33.6731L39.0873 33.7255L39.1222 33.7779L39.1746 33.8478L39.227 33.9176L39.2794 33.9875H39.227ZM40.3273 34.5114V39.2794H40.1352L39.9431 39.2619L39.751 39.2445L39.5763 39.227L39.4017 39.1921L39.227 39.1572L39.0524 39.1222L38.8777 39.0873L38.7031 39.0349L38.5459 38.9825L38.3887 38.9301L38.2315 38.8777L38.0743 38.8079L37.9171 38.738L37.7599 38.6681L37.6028 38.5983L37.4456 38.5284L37.2884 38.4411L37.1487 38.3538L37.0089 38.2664L36.8692 38.1791L36.7295 38.0918L36.5898 37.987L36.4501 37.8822L36.3103 37.7774L36.1881 37.6726L36.0484 37.5504L35.9261 37.4281L35.8038 37.3059L35.6816 37.1661L35.5593 37.0264L35.4371 36.8867L39.2095 33.9875L39.227 34.0049L39.2445 34.0224L39.2619 34.0399L39.2794 34.0573L39.3143 34.0748L39.3493 34.0923L39.3842 34.1272L39.4191 34.1621L39.4541 34.1971L39.5065 34.232L39.5588 34.2669L39.6112 34.3019L39.6636 34.3368L39.716 34.3717L39.7684 34.3892L39.8208 34.4066L39.8732 34.4241L39.9256 34.4416L39.978 34.459L40.0304 34.4765L40.0828 34.494L40.1352 34.5114L40.1701 34.5289L40.2051 34.5464H40.24H40.2749H40.3098H40.3273H40.3448L40.3273 34.5114ZM48.5185 39.2794H40.3273V34.5114H48.5185V39.2794ZM50.1776 32.7475H54.9456L54.9282 33.0793L54.8932 33.4111L54.8408 33.743L54.771 34.0573L54.6836 34.3717L54.5963 34.6686L54.4915 34.9655L54.3693 35.245L54.2295 35.5244L54.0898 35.7864L53.9326 36.0484L53.758 36.3103L53.5833 36.5549L53.3912 36.7994L53.1991 37.0264L52.9895 37.2535L52.7799 37.463L52.5529 37.6726L52.3258 37.8647L52.0813 38.0569L51.8368 38.2315L51.5748 38.3887L51.3129 38.5459L51.0334 38.6856L50.754 38.8079L50.4571 38.9301L50.1602 39.0349L49.8458 39.1222L49.5314 39.1921L49.1996 39.2445L48.8678 39.2794L48.5185 39.2969V34.5289H48.5534H48.5883H48.6407L48.6931 34.5114L48.7455 34.494L48.8154 34.4765L48.8852 34.4416L48.9551 34.4066L49.0249 34.3717L49.1123 34.3193L49.1996 34.2669L49.2869 34.2145L49.3742 34.1447L49.4616 34.0748L49.5314 34.0049L49.6013 33.9351L49.6712 33.8652L49.741 33.7779L49.8109 33.6906L49.8807 33.6032L49.9331 33.5159L49.9855 33.4286L50.0379 33.3413L50.0728 33.2539L50.1078 33.1666L50.1427 33.0968L50.1602 33.0269L50.1776 32.957L50.1951 32.8872V32.8348V32.7824V32.73L50.1776 32.7475ZM54.9456 21.8143V32.7475H50.1776V21.8143H54.9456ZM49.8458 20.9934L53.5833 18.0418L53.6532 18.1466L53.7231 18.2514L53.7929 18.3562L53.8628 18.461L53.9326 18.5658L54.0025 18.6706L54.0549 18.7754L54.1073 18.8802L54.1597 18.9849L54.2121 19.0897L54.2645 19.1945L54.3169 19.2993L54.3693 19.4041L54.4217 19.5089L54.4741 19.6137L54.5265 19.7185L54.5614 19.8233L54.5963 19.9455L54.6312 20.0678L54.6662 20.19L54.7011 20.3123L54.736 20.4345L54.771 20.5568L54.8059 20.6791L54.8234 20.8013L54.8408 20.941L54.8583 21.0633L54.8758 21.203L54.8932 21.3427L54.9107 21.4825V21.6222V21.7619H50.1427V21.7444V21.727V21.7095V21.6746V21.6396V21.6047L50.1252 21.5698L50.1078 21.5349L50.0903 21.4999L50.0728 21.465L50.0554 21.4301L50.0379 21.3951L50.0205 21.3602L50.003 21.3253L49.9855 21.2903L49.9681 21.2554L49.9506 21.2205L49.9331 21.1856L49.9157 21.1506L49.8982 21.1157L49.8807 21.0808L49.8633 21.0458L49.8458 21.0284L49.8283 21.0109L49.8109 20.9934L49.7934 20.976V20.9585L49.8458 20.9934ZM49.6013 20.6791L52.8149 17.1686L52.8673 17.221L52.9022 17.2559L52.9371 17.2908L52.9721 17.3258L53.007 17.3607L53.0419 17.3956L53.0768 17.4305L53.1118 17.4655L53.1292 17.5004L53.1642 17.5353L53.1991 17.5703L53.2166 17.5877L53.2515 17.6227L53.2864 17.6576L53.3039 17.6925L53.3214 17.71L53.3388 17.7449L53.3563 17.7799L53.3738 17.7973L53.3912 17.8322L53.4087 17.8497L53.4261 17.8672L53.4436 17.8846L53.4611 17.9021L53.4785 17.9196L53.496 17.937L53.5135 17.9545L53.5309 17.972L53.5484 17.9894L53.5659 18.0069V18.0244L49.8283 20.976L49.8109 20.941L49.7934 20.9236L49.7759 20.9061L49.7585 20.8886L49.741 20.8712L49.7235 20.8537L49.7061 20.8188L49.6886 20.8013L49.6712 20.7839L49.6537 20.7664L49.6362 20.7489L49.6188 20.7315V20.714L49.6013 20.6965V20.6791V20.6616L49.5838 20.6441L49.5664 20.6267H49.5838L49.6013 20.6441V20.6791ZM48.0993 20.0678V15.2998H48.2739H48.4486L48.6232 15.3173L48.7979 15.3347L48.9725 15.3522L49.1472 15.3697L49.3044 15.4046L49.4616 15.4395L49.6188 15.4745L49.7759 15.5094L49.9331 15.5618L50.0903 15.6142L50.2475 15.6666L50.4047 15.719L50.5619 15.7714L50.7191 15.8238L50.8588 15.8936L50.9985 15.9635L51.1382 16.0333L51.2779 16.1032L51.4177 16.1731L51.5574 16.2429L51.6971 16.3302L51.8368 16.4176L51.9591 16.5049L52.0813 16.5922L52.2036 16.6796L52.3258 16.7669L52.4481 16.8717L52.5704 16.9765L52.6926 17.0812L52.8149 17.186L49.6013 20.6965L49.5664 20.6616L49.5314 20.6267L49.4965 20.5917L49.4616 20.5568L49.4266 20.5219L49.3917 20.4869L49.3393 20.452L49.2869 20.4171L49.2345 20.3822L49.1821 20.3472L49.1297 20.3123L49.0773 20.2948L49.0249 20.2774L48.9725 20.2599L48.9201 20.2424L48.8678 20.225L48.8154 20.2075L48.763 20.19L48.7106 20.1726L48.6582 20.1551L48.6058 20.1376L48.5534 20.1202L48.501 20.1027L48.4486 20.0852L48.3962 20.0678H48.3438H48.2914H48.239H48.1866H48.1517H48.1168H48.0818H48.0993ZM40.7115 15.2998H48.0993V20.0678H40.7115V15.2998ZM38.5459 22.2335H33.7779V21.8842L33.8128 21.5349L33.8652 21.1856L33.9176 20.8362L33.9875 20.5044L34.0748 20.1726L34.1796 19.8582L34.3018 19.5438L34.4416 19.2295L34.5988 18.9326L34.7734 18.6356L34.9481 18.3562L35.1402 18.0768L35.3498 17.8148L35.5593 17.5703L35.7864 17.3258L36.0309 17.0987L36.2754 16.8891L36.5374 16.6796L36.8168 16.4874L37.0963 16.3128L37.3932 16.1381L37.6901 15.9809L38.0045 15.8412L38.3188 15.719L38.6332 15.6142L38.965 15.5269L39.2969 15.457L39.6462 15.4046L39.9955 15.3522L40.3448 15.3173L40.6941 15.2998V20.0678H40.5718H40.467L40.3622 20.0852L40.2575 20.1027L40.1527 20.1202L40.0479 20.1551L39.9431 20.19L39.8383 20.225L39.751 20.2599L39.6636 20.3123L39.5763 20.3647L39.489 20.4171L39.4017 20.4695L39.3143 20.5393L39.227 20.6092L39.1571 20.6791L39.0873 20.7489L39.0174 20.8362L38.9476 20.9236L38.8952 21.0109L38.8428 21.0982L38.7904 21.1856L38.738 21.2729L38.7031 21.3602L38.6681 21.465L38.6332 21.5698L38.5983 21.6746L38.5808 21.7794L38.5633 21.8842L38.5459 21.9889V22.0937V22.216V22.2335Z" fill="black"/>
<path fill-rule="evenodd" clip-rule="evenodd" d="M36.1882 22.2336V32.2586C36.1882 33.7431 36.6772 34.5814 37.3409 35.4547C37.9347 36.2231 39.2795 36.9043 40.3274 36.9043H48.5186C50.5445 36.9043 52.5705 34.791 52.5705 32.7476V21.8144C52.5705 21.0634 52.1688 20.0679 51.7321 19.509C51.5749 19.3169 51.3828 19.0375 51.2256 18.8977C50.4397 18.1817 49.2696 17.6577 48.1169 17.6577H40.7291C38.2141 17.6577 36.1707 19.7011 36.1707 22.2161L36.1882 22.2336Z" fill="#FAFAFA"/>
<path d="M46.2127 12.7845L48.2212 17.0983L48.099 17.1507L47.9942 17.2031L47.8719 17.2555L47.7497 17.3079L47.6274 17.3603L47.5051 17.3953L47.3829 17.4302L47.2606 17.4651L47.1384 17.5L47.0161 17.535L46.8939 17.5699L46.7716 17.6048L46.6494 17.6398L46.5271 17.6747L46.4048 17.7096L46.2826 17.7446L46.1603 17.762L46.0381 17.7795L45.9158 17.797L45.7936 17.8144L45.6713 17.8319L45.5491 17.8493L45.4268 17.8668L45.3045 17.8843L45.1823 17.9017L45.06 17.9192H44.9378H44.8155H44.6933H44.571H44.4488H44.3265V13.1512H44.3964H44.4662H44.5361H44.6059H44.6758H44.7457H44.8155H44.8854H44.9552H45.0251H45.095L45.1648 13.1338L45.2347 13.1163L45.3045 13.0988L45.3744 13.0814L45.4268 13.0639L45.4792 13.0464L45.5316 13.029L45.584 13.0115L45.6364 12.994L45.6888 12.9766L45.7412 12.9591L45.7936 12.9417L45.846 12.9242L45.8984 12.9067L45.9507 12.8893L46.0031 12.8718L46.0555 12.8543L46.1079 12.8369L46.1603 12.8194L46.2127 12.8019L46.2651 12.7845H46.2127ZM47.0511 12.2081L50.1773 15.8059L50.1249 15.8409L50.0725 15.8758L50.0201 15.9107L49.9677 15.9631L49.9153 15.998L49.8629 16.033L49.8105 16.0679L49.7581 16.1203L49.7058 16.1552L49.6534 16.1902L49.601 16.2426L49.5486 16.2775L49.4962 16.3124L49.4438 16.3473L49.3914 16.3823L49.3215 16.4347L49.2517 16.4871L49.1993 16.522L49.1469 16.5569L49.077 16.5919L49.0071 16.6268L48.9373 16.6617L48.8674 16.6967L48.7976 16.7316L48.7277 16.7665L48.6578 16.8014L48.588 16.8364L48.5181 16.8713L48.4483 16.9062L48.3784 16.9412L48.3085 16.9761L48.2387 17.011L46.2302 12.6971L46.2651 12.6797L46.3001 12.6622L46.335 12.6447L46.3699 12.6273L46.4048 12.6098L46.4223 12.5923L46.4572 12.5749L46.4747 12.5574L46.4922 12.54L46.5096 12.5225L46.5271 12.505L46.5446 12.4876L46.562 12.4701L46.5795 12.4526L46.597 12.4352L46.6144 12.4177L46.6319 12.4002L46.6668 12.3828L46.6843 12.3653L46.7017 12.3478L46.7192 12.3304L46.7367 12.3129L46.7716 12.2954L46.7891 12.278L46.8065 12.2605L46.8415 12.243L46.8764 12.2081L46.9113 12.1907L46.9463 12.1732L46.9812 12.1383L47.0161 12.1033L47.0511 12.0684V12.2081ZM47.8195 11.4222L51.6968 14.1991L51.6444 14.269L51.592 14.3389L51.5396 14.4087L51.4872 14.4786L51.4348 14.5484L51.3824 14.6183L51.33 14.6882L51.2776 14.7406L51.2252 14.793L51.1728 14.8453L51.1204 14.8977L51.068 14.9501L51.0156 15.0025L50.9632 15.0549L50.9108 15.1073L50.8584 15.1597L50.8061 15.2121L50.7537 15.2645L50.7013 15.3169L50.6489 15.3693L50.5965 15.4042L50.5441 15.4392L50.5091 15.4741L50.4567 15.509L50.4218 15.544L50.3869 15.5789L50.3345 15.6138L50.2996 15.6487L50.2646 15.6837L50.2297 15.7186L50.1948 15.7535L50.1598 15.7885L47.0336 12.1907L47.086 12.1557L47.1209 12.1208L47.1733 12.0859L47.2082 12.0509L47.2432 12.016L47.2781 11.9985L47.313 11.9636L47.348 11.9287L47.3654 11.9112L47.4004 11.8937L47.4178 11.8763L47.4353 11.8588L47.4528 11.8413L47.4702 11.8239L47.4877 11.8064L47.5051 11.789L47.5226 11.7715L47.5401 11.754L47.5575 11.7366L47.575 11.7191L47.5925 11.7016L47.6099 11.6842L47.6274 11.6667L47.6449 11.6492L47.6623 11.6318L47.6798 11.6143L47.6973 11.5968L47.7147 11.5619L47.7322 11.527L47.7497 11.492L47.7846 11.4571L47.8195 11.4222ZM48.1514 10.8458L52.5351 12.7146L52.5176 12.767L52.5002 12.8194L52.4827 12.8718L52.4652 12.9242L52.4303 12.9766L52.4128 13.029L52.3954 13.0814L52.3604 13.1338L52.343 13.1862L52.3255 13.2386L52.3081 13.291L52.2731 13.3434L52.2557 13.3957L52.2382 13.4481L52.2033 13.5005L52.1858 13.5355L52.1683 13.5704L52.1334 13.6228L52.1159 13.6577L52.0985 13.6927L52.0635 13.745L52.0286 13.7974L52.0111 13.8324L51.9937 13.8673L51.9587 13.9197L51.9238 13.9721L51.9064 14.007L51.8714 14.042L51.8365 14.0769L51.8016 14.1293L51.7666 14.1642L51.7317 14.1991L47.8544 11.4222L47.8719 11.4047V11.3873L47.8894 11.3698L47.9068 11.3523L47.9243 11.3349L47.9418 11.3174L47.9592 11.2999L47.9767 11.2825L47.9942 11.265L48.0116 11.2475L48.0291 11.2126L48.0466 11.1777L48.064 11.1602L48.0815 11.1253L48.099 11.0904L48.1164 11.0729L48.1339 11.038L48.1514 11.003L48.1688 10.9856L48.1863 10.9681L48.2038 10.9506L48.2212 10.9332V10.9157L48.2387 10.8982V10.8808V10.8633L48.1514 10.8458ZM41.078 6.46209L37.3404 3.51049L37.9343 2.81188L38.5805 2.2006L39.2616 1.65919L39.9777 1.18763L40.7112 0.803395L41.4797 0.489023L42.2481 0.261977L43.0341 0.104791L43.82 0.0174651L44.6059 0L45.3744 0.0523954L46.1254 0.174651L46.8589 0.366767L47.575 0.611279L48.2736 0.908186L48.9373 1.25749L49.566 1.65919L50.1598 2.11328L50.7187 2.61977L51.2427 3.17865L51.7142 3.78993L52.1334 4.43614L52.5002 5.13474L52.8145 5.86828L53.0591 6.63674L53.2337 7.44014L53.321 8.27847L53.3385 9.13426L53.2686 10.0075L53.1114 10.8808L52.8669 11.7715L52.5351 12.6447L48.1514 10.776L48.3435 10.287L48.4657 9.8154L48.5531 9.37877L48.588 8.95961V8.55791L48.5531 8.19114L48.4832 7.84184L48.3784 7.51L48.2387 7.17816L48.0815 6.86379L47.8894 6.56688L47.6623 6.28744L47.4178 6.02547L47.1558 5.78095L46.8589 5.55391L46.5446 5.36179L46.2127 5.18714L45.8809 5.04742L45.5316 4.92516L45.1823 4.83784L44.833 4.78544L44.4837 4.75051H44.1344L43.7851 4.78544L43.4358 4.8553L43.0865 4.96009L42.7546 5.09981L42.4228 5.27447L42.091 5.48405L41.7591 5.74602L41.4447 6.0604L41.1304 6.42716L41.078 6.46209ZM40.3444 8.01649L35.7162 6.91619L35.7511 6.79393L35.7861 6.68914L35.821 6.58435L35.8559 6.46209L35.8908 6.3573L35.9258 6.25251L35.9607 6.14772L35.9956 6.04293L36.0306 5.93814L36.0655 5.83335L36.1004 5.72856L36.1528 5.62377L36.2052 5.51898L36.2576 5.41419L36.31 5.3094L36.3624 5.20461L36.4148 5.09981L36.4672 4.99502L36.5196 4.89023L36.572 4.78544L36.6244 4.68065L36.6768 4.57586L36.7292 4.47107L36.799 4.36628L36.8689 4.26149L36.9387 4.1567L37.0086 4.05191L37.0785 3.94712L37.1483 3.84233L37.2182 3.73753L37.2881 3.65021L37.3579 3.54542L41.0954 6.49702L41.0605 6.53195L41.0256 6.56688L40.9907 6.60181L40.9557 6.63674L40.9208 6.67167L40.8859 6.7066L40.8509 6.759L40.816 6.79393L40.7811 6.84633L40.7461 6.89872L40.7112 6.95112L40.6938 7.00351L40.6763 7.05591L40.6588 7.1083L40.6414 7.1607L40.6239 7.21309L40.6064 7.26549L40.589 7.31788L40.5715 7.37028L40.554 7.42267L40.5366 7.47507L40.5191 7.52747L40.5016 7.57986L40.4842 7.63226L40.4667 7.68465L40.4492 7.73705L40.4318 7.78944L40.4143 7.84184L40.3968 7.89423L40.3794 7.94663L40.3619 7.99902L40.3444 8.05142V8.01649ZM40.6064 10.7236L36.1877 12.4876L36.1354 12.3478L36.083 12.2081L36.0306 12.0509L35.9782 11.8937L35.9258 11.7366L35.8734 11.5794L35.821 11.4222L35.7686 11.265L35.7337 11.1078L35.6987 10.9506L35.6638 10.776L35.6289 10.6013L35.5939 10.4267L35.559 10.252L35.5415 10.0774L35.5241 9.90272L35.5066 9.72807L35.4891 9.55342L35.4717 9.37877V9.18665V8.99454V8.80242V8.6103L35.4891 8.41819L35.5066 8.22607L35.5241 8.03395L35.5415 7.84184L35.5765 7.64972L35.6114 7.4576L35.6463 7.26549L35.6813 7.07337L35.7337 6.88126L40.3619 7.98156L40.3444 8.08635L40.327 8.19114L40.3095 8.27847L40.2921 8.36579L40.2746 8.45312L40.2571 8.54044V8.62777V8.71509V8.80242V8.88974V8.97707V9.0644V9.15172V9.23905V9.30891V9.37877L40.2746 9.46609L40.2921 9.53595L40.3095 9.60581L40.327 9.69314L40.3444 9.78047L40.3619 9.86779L40.3794 9.95512L40.3968 10.0424L40.4143 10.1298L40.4318 10.2171L40.4667 10.3044L40.5016 10.3917L40.5366 10.4791L40.5715 10.5664L40.6064 10.6537L40.6414 10.741L40.6064 10.7236ZM44.2741 13.1512V17.9192H43.9248L43.593 17.9017L43.2611 17.8668L42.9293 17.8144L42.5974 17.762L42.2831 17.6922L41.9687 17.6048L41.6543 17.5L41.34 17.3953L41.0431 17.273L40.7461 17.1507L40.4492 17.011L40.1698 16.8713L39.8904 16.7141L39.6109 16.5395L39.3489 16.3648L39.087 16.1727L38.8424 15.9806L38.5979 15.7885L38.3534 15.5789L38.1264 15.3693L37.8993 15.1423L37.6898 14.9152L37.4802 14.6707L37.2881 14.4262L37.0959 14.1817L36.9213 13.9197L36.7466 13.6577L36.5894 13.3783L36.4497 13.0988L36.31 12.8019L36.1877 12.505L40.6064 10.741L40.6588 10.8458L40.7112 10.9506L40.7636 11.0554L40.8335 11.1602L40.9033 11.265L40.9732 11.3698L41.0605 11.4746L41.1478 11.5794L41.2352 11.6842L41.34 11.789L41.4447 11.8937L41.5495 11.9985L41.6718 12.1033L41.7941 12.2081L41.9163 12.2954L42.0386 12.3828L42.1608 12.4701L42.3005 12.5574L42.4403 12.6273L42.58 12.6971L42.7197 12.767L42.8594 12.8194L42.9991 12.8718L43.1389 12.9242L43.2786 12.9766L43.4183 13.0115L43.558 13.0464L43.6978 13.0814L43.8375 13.0988L43.9772 13.1163L44.1169 13.1338H44.2566L44.2741 13.1512Z" fill="black"/>
<path fill-rule="evenodd" clip-rule="evenodd" d="M44.2915 15.544C45.3569 15.544 46.3698 15.3344 47.2256 14.9327C47.802 14.6708 48.1688 14.3913 48.6228 13.9896C49.0944 13.5879 49.3389 13.3958 49.7581 12.802C49.9327 12.5575 50.2296 12.051 50.3519 11.7716C53.4956 4.36635 43.9422 -1.01291 39.2266 4.99509C38.6677 5.6937 38.266 6.58442 38.0564 7.45767C37.6722 9.047 37.9167 10.3394 38.4232 11.5969C39.2965 13.7626 41.7241 15.5266 44.309 15.5266L44.2915 15.544Z" fill="#FAFAFA"/>
</svg>
