<svg width="60" height="48" viewBox="0 0 60 48" fill="none" xmlns="http://www.w3.org/2000/svg">
<path d="M53.2345 32.4566L48.9783 36.7129L53.2345 40.9691L57.4908 36.7129L53.2345 32.4566Z" fill="#FEE500"/>
<path fill-rule="evenodd" clip-rule="evenodd" d="M50.4634 36.2236L53.438 33.1743L56.846 36.5076L53.5127 39.9157L50.1046 36.5824L50.4634 36.2236ZM29.4021 32.5315C18.3707 32.5315 14.9776 28.9142 14.6188 28.8245L14.2451 28.3761V18.0173C15.4858 18.122 15.4858 18.2117 16.7115 18.69L27.4141 22.6362C29.9402 23.5779 29.5366 23.0547 32.6756 22.0084L44.2003 17.8529V28.4957C41.6741 30.1847 40.9567 30.8424 36.9806 31.7244C34.3797 32.3073 31.5994 32.5465 29.3871 32.5465L29.4021 32.5315ZM29.5217 2.80059L54.0658 11.7991L29.2825 20.3791L4.90284 11.7692L29.5217 2.80059ZM0 11.2909C0 12.696 0.77728 12.7557 1.9432 13.2042L11.5546 16.8066V28.5704C11.5546 30.693 15.6502 32.681 17.429 33.3238C22.1375 35.0128 23.8864 35.0427 29.1629 35.1922C34.4395 35.3566 41.8984 34.3253 46.293 29.9605C47.145 29.1085 46.8909 27.7931 46.8909 26.4179V16.8813L52.1973 14.968V28.5554C52.1973 31.3357 52.4514 30.4688 49.8206 33.1145C45.7549 37.1803 45.7848 35.9396 51.1958 41.3357C52.6009 42.7408 52.2123 42.3671 52.2123 45.4762C52.2123 46.2685 52.003 47.7333 53.423 47.8081C55.9193 47.9276 53.9462 43.249 55.157 41.9336C56.2182 40.7826 60 37.539 60 36.7767C60 35.7004 59.5366 35.4912 58.5351 34.5196C57.3244 33.3537 54.7683 30.8723 54.7683 30.3492V14.6242C54.7683 12.9949 59.0583 13.7273 59.0583 11.4105C59.0583 10.3791 57.1749 9.96053 56.3827 9.67652L29.5366 0.00537109L0.538117 10.4837L0.0149477 11.2909H0Z" fill="black"/>
</svg>
