<svg width="203" height="39" viewBox="0 0 203 39" fill="none" xmlns="http://www.w3.org/2000/svg">
<g clip-path="url(#clip0_8_294)">
<path fill-rule="evenodd" clip-rule="evenodd" d="M43.1455 0H30.1681L26.1611 4.03662L22.1537 0H9.17666L0.000457764 9.24333V22.316L9.17666 31.5595H22.1537L26.1611 27.5227L30.1681 31.5595H43.1455L52.3219 22.316V9.24333L43.1455 0Z" fill="#FEE500"/>
<path d="M40.9045 27.2052H32.2648C32.0355 27.2052 31.8154 27.1143 31.6541 26.9503L26.1611 21.4015L20.6679 26.9503C20.5056 27.1143 20.2857 27.2052 20.0564 27.2052H11.4176C11.1883 27.2052 10.9686 27.1143 10.8072 26.9503L4.69811 20.7795C4.53566 20.6154 4.44504 20.3936 4.44504 20.1627V11.4357C4.44504 11.2041 4.53566 10.9827 4.69811 10.8189L10.8072 4.6481C10.9686 4.48419 11.1883 4.39209 11.4176 4.39209H20.0564C20.2857 4.39209 20.5058 4.48419 20.6679 4.6481L26.1611 10.197L31.6541 4.6481C31.8154 4.48419 32.0355 4.39209 32.2648 4.39209H40.9045C41.1325 4.39209 41.353 4.48419 41.5149 4.6481L47.624 10.8189C47.7852 10.9829 47.8771 11.2041 47.8771 11.4357V20.1627C47.8771 20.3936 47.7854 20.6156 47.624 20.7795L41.5149 26.9503C41.3528 27.1143 41.1325 27.2052 40.9045 27.2052ZM32.6223 25.4606H40.5468L46.1498 19.8009V11.7968L40.5468 6.13802H32.6223L27.0297 11.7873V19.8102L32.6223 25.4604V25.4606ZM11.7751 25.4606H19.6989L25.2924 19.8104V11.7875L19.6989 6.1382H11.7751L6.17234 11.797V19.8011L11.7751 25.4608V25.4606ZM39.5222 23.8343H33.6481C33.4188 23.8343 33.1999 23.7426 33.0377 23.5785L28.8844 19.3832C28.7231 19.2194 28.6314 18.9982 28.6314 18.7664V12.8333C28.6314 12.6026 28.7229 12.3803 28.8844 12.2168L33.0377 8.022C33.2001 7.8579 33.4188 7.76654 33.6481 7.76654H39.5222C39.7511 7.76654 39.9712 7.8579 40.1326 8.022L44.2858 12.2168C44.4482 12.3805 44.5389 12.6026 44.5389 12.8333V18.7664C44.5389 18.9982 44.4482 19.2196 44.2858 19.3832L40.1326 23.5785C39.9712 23.7426 39.7511 23.8343 39.5222 23.8343ZM34.0065 22.0884H39.1645L42.811 18.4043V13.195L39.1645 9.51098H34.0065L30.3598 13.195V18.4043L34.0065 22.0884ZM18.6748 23.8343H12.8007C12.5727 23.8343 12.3526 23.7426 12.1903 23.5785L8.03705 19.3832C7.87589 19.2194 7.78398 18.9982 7.78398 18.7664V12.8333C7.78398 12.6026 7.87571 12.3803 8.03705 12.2168L12.1903 8.022C12.3527 7.8579 12.5727 7.76654 12.8007 7.76654H18.6748C18.9032 7.76654 19.1242 7.8579 19.2852 8.022L23.4388 12.2168C23.6009 12.3805 23.6918 12.6026 23.6918 12.8333V18.7664C23.6918 18.9982 23.6009 19.2196 23.4388 19.3832L19.2852 23.5785C19.1242 23.7426 18.9032 23.8343 18.6748 23.8343ZM13.1595 22.0884H18.3175L21.9636 18.4043V13.195L18.3175 9.51098H13.1595L9.51239 13.195V18.4043L13.1595 22.0884ZM38.1351 20.4679H35.0171C34.7878 20.4679 34.5686 20.3773 34.4056 20.2126L32.2011 17.9859C32.039 17.8214 31.948 17.5997 31.948 17.368V14.2185C31.948 13.9865 32.039 13.7655 32.2011 13.6017L34.4056 11.3739C34.5688 11.2102 34.7878 11.1183 35.0171 11.1183H38.1351C38.3644 11.1183 38.5845 11.2102 38.7467 11.3739L40.9511 13.6017C41.1135 13.7657 41.2042 13.9865 41.2042 14.2185V17.368C41.2042 17.5997 41.1135 17.8216 40.9511 17.9859L38.7467 20.2126C38.5843 20.3773 38.3644 20.4679 38.1351 20.4679ZM35.3746 18.7234H37.7777L39.4769 17.0071V14.5802L37.7777 12.8639H35.3746L33.6752 14.5802V17.0071L35.3746 18.7234ZM17.288 20.4679H14.1697C13.9408 20.4679 13.7203 20.3773 13.5584 20.2126L11.3541 17.9859C11.1909 17.8214 11.1006 17.5997 11.1006 17.368V14.2185C11.1006 13.9865 11.1909 13.7655 11.3541 13.6017L13.5584 11.3739C13.7205 11.2102 13.9408 11.1183 14.1697 11.1183H17.288C17.5173 11.1183 17.7365 11.2102 17.8993 11.3739L20.1037 13.6017C20.2652 13.7657 20.3571 13.9865 20.3571 14.2185V17.368C20.3571 17.5997 20.2654 17.8216 20.1037 17.9859L17.8993 20.2126C17.7363 20.3773 17.5173 20.4679 17.288 20.4679ZM14.5273 18.7234H16.9298L18.6297 17.0071V14.5802L16.9298 12.8639H14.5273L12.8281 14.5802V17.0071L14.5273 18.7234Z" fill="black"/>
<path fill-rule="evenodd" clip-rule="evenodd" d="M1.69327 1.75098L4.14774 9.1868L9.0543 4.22921L1.69327 1.75098Z" fill="black"/>
<path fill-rule="evenodd" clip-rule="evenodd" d="M26.1609 23.27L30.8976 28.0548L26.1609 32.8395L21.4241 28.0548L26.1609 23.27Z" fill="black"/>
<path fill-rule="evenodd" clip-rule="evenodd" d="M50.6283 1.75098L48.174 9.1868L43.2676 4.22921L50.6283 1.75098Z" fill="black"/>
<path d="M68.4596 13.5758V17.6219C68.4596 17.8842 68.4832 18.1434 68.5314 18.4002C68.5788 18.6562 68.6784 18.8878 68.8293 19.0956C68.9799 19.3022 69.1853 19.4685 69.4461 19.593C69.7055 19.7184 70.0547 19.7798 70.4934 19.7798C70.8078 19.7798 71.1642 19.7455 71.5611 19.6759C71.9579 19.6065 72.3342 19.4966 72.6904 19.344V17.6427H71.3143C71.3143 16.2594 71.3118 14.8936 71.3038 13.5451C71.2972 12.1962 71.2939 10.8371 71.2939 9.46755H68.5692L66.0304 13.1815C65.7987 13.5135 65.5828 13.8283 65.385 14.1256C65.1872 14.4231 65.0092 14.6856 64.8527 14.9139C64.6958 15.142 64.5692 15.329 64.474 15.4748C64.3782 15.6198 64.3298 15.6992 64.3298 15.713V15.6925H64.2485V9.46755H60.0577V11.2931H61.3942V19.6131H64.1327L66.9769 15.6092C67.3195 15.1249 67.6179 14.6927 67.8719 14.3128C68.1262 13.9321 68.288 13.6869 68.3563 13.576H68.4591L68.4596 13.5758ZM81.6868 9.44689V13.4723H77.764V9.44689H73.6143V11.2725H74.9087V19.6129H77.7638V15.1519H81.6866V17.8911C81.6866 18.555 81.8367 19.0394 82.139 19.3436C82.4394 19.6482 82.9612 19.7997 83.6996 19.7997C84.0146 19.7997 84.3737 19.7621 84.7775 19.6858C85.1818 19.6101 85.5553 19.496 85.8972 19.3436V17.6217H84.5417V9.44689H81.6866H81.6868ZM92.7579 19.6129H97.7487V17.7668H96.6391V11.2929H97.7284V9.44689H92.7172V11.2929H93.7851V17.7668H92.7579V19.6129ZM99.6591 14.219L101.96 11.2725L103.13 11.1895L103.254 9.67518C103.021 9.55071 102.736 9.44689 102.401 9.36354C102.066 9.28149 101.74 9.23963 101.425 9.23963C101.042 9.23963 100.728 9.30549 100.481 9.43685C100.234 9.56801 99.9943 9.79965 99.762 10.1321L96.969 14.094V14.7176L99.9469 19.0534C100.152 19.3438 100.385 19.5448 100.645 19.6553C100.904 19.766 101.254 19.8209 101.692 19.8209C101.816 19.8209 101.96 19.8103 102.124 19.7902C102.289 19.7697 102.457 19.7453 102.627 19.7182C102.798 19.6897 102.969 19.6519 103.141 19.6032C103.312 19.5548 103.466 19.5031 103.603 19.448V17.9951L102.268 17.7877L99.6591 14.2194V14.219ZM90.6831 14.219L88.1768 17.7873L86.8426 17.9948V19.4476C87.1161 19.5582 87.4454 19.6447 87.828 19.7064C88.2113 19.7693 88.527 19.8067 88.7731 19.8205C89.1976 19.8205 89.5396 19.7656 89.8003 19.6549C90.0603 19.5444 90.2928 19.3435 90.498 19.053L93.3947 14.7172V14.0936L90.6831 10.1318C90.4641 9.79928 90.2281 9.56783 89.9751 9.43647C89.7211 9.30531 89.4028 9.23926 89.0191 9.23926C88.7042 9.23926 88.3752 9.28131 88.0335 9.36317C87.6917 9.44652 87.4038 9.55015 87.171 9.67481L87.3147 11.1891L88.4647 11.2721L90.6831 14.2186V14.219ZM113.051 13.5758V17.6219C113.051 17.8842 113.075 18.1434 113.123 18.4002C113.17 18.6562 113.27 18.8878 113.42 19.0956C113.571 19.3022 113.776 19.4685 114.037 19.593C114.297 19.7184 114.646 19.7798 115.084 19.7798C115.399 19.7798 115.755 19.7455 116.153 19.6759C116.548 19.6065 116.925 19.4966 117.282 19.344V17.6427H115.905C115.905 16.2594 115.902 14.8936 115.895 13.5451C115.888 12.1962 115.885 10.8371 115.885 9.46755H113.161L110.621 13.1815C110.389 13.5135 110.175 13.8283 109.976 14.1256C109.779 14.4231 109.601 14.6856 109.444 14.9139C109.286 15.142 109.161 15.329 109.065 15.4748C108.969 15.6198 108.921 15.6992 108.921 15.713V15.6925H108.839V9.46755H104.649V11.2931H105.984V19.6131H108.724L111.566 15.6092C111.91 15.1249 112.208 14.6927 112.463 14.3128C112.717 13.9321 112.879 13.6869 112.947 13.576H113.05L113.051 13.5758ZM126.278 9.44689V13.4723H122.356V9.44689H118.205V11.2725H119.5V19.6129H122.355V15.1519H126.278V17.8911C126.278 18.555 126.428 19.0394 126.73 19.3436C127.031 19.6482 127.552 19.7997 128.291 19.7997C128.605 19.7997 128.965 19.7621 129.369 19.6858C129.773 19.6101 130.146 19.496 130.488 19.3436V17.6217H129.133V9.44689H126.278H126.278ZM139.752 13.5758V17.6219C139.752 17.8842 139.776 18.1434 139.824 18.4002C139.871 18.6562 139.971 18.8878 140.122 19.0956C140.272 19.3022 140.477 19.4685 140.738 19.593C140.998 19.7184 141.347 19.7798 141.786 19.7798C142.1 19.7798 142.456 19.7455 142.854 19.6759C143.25 19.6065 143.626 19.4966 143.983 19.344V17.6427H142.607C142.607 16.2594 142.603 14.8936 142.597 13.5451C142.589 12.1962 142.586 10.8371 142.586 9.46755H139.862L137.322 13.1815C137.091 13.5135 136.876 13.8283 136.676 14.1256C136.48 14.4231 136.301 14.6856 136.145 14.9139C135.988 15.142 135.861 15.329 135.766 15.4748C135.67 15.6198 135.622 15.6992 135.622 15.713V15.6925H135.541V9.46755H131.35V11.2931H132.686V19.6131H135.425L138.268 15.6092C138.611 15.1249 138.909 14.6927 139.164 14.3128C139.418 13.9321 139.58 13.6869 139.648 13.576H139.751L139.752 13.5758ZM144.907 23.9916H150.658V22.0623H149.159V19.1991C149.624 19.4339 150.111 19.5963 150.617 19.686C151.124 19.776 151.548 19.8207 151.891 19.8207C152.685 19.8207 153.359 19.6826 153.914 19.4058C154.468 19.1297 154.917 18.7486 155.259 18.2651C155.602 17.7804 155.848 17.2001 155.999 16.5216C156.15 15.8442 156.225 15.1111 156.225 14.3228C156.225 13.6309 156.155 12.981 156.02 12.3718C155.882 11.764 155.656 11.2317 155.342 10.7751C155.026 10.3184 154.605 9.95575 154.079 9.68541C153.551 9.41601 152.897 9.28168 152.116 9.28168C151.897 9.28168 151.654 9.30568 151.388 9.3535C151.121 9.40243 150.846 9.47071 150.566 9.56113C150.286 9.65099 150.014 9.76523 149.754 9.90291C149.495 10.0421 149.255 10.2004 149.036 10.3809L148.996 10.3602V9.44689H144.907V11.3763H146.304V22.0623H144.907V23.9916H144.907ZM150.114 17.4969C149.723 17.3735 149.405 17.2344 149.159 17.0823V12.2267C149.405 12.0342 149.734 11.8539 150.144 11.6877C150.555 11.5216 150.939 11.4388 151.295 11.4388C151.582 11.4388 151.849 11.4766 152.096 11.5528C152.342 11.6291 152.558 11.7742 152.743 11.9888C152.927 12.2031 153.071 12.5008 153.173 12.8805C153.277 13.2612 153.328 13.7559 153.328 14.3641C153.328 15.0559 153.267 15.6159 153.143 16.0447C153.021 16.4736 152.863 16.8088 152.67 17.0509C152.479 17.2931 152.26 17.4589 152.014 17.5488C151.767 17.6386 151.514 17.6835 151.253 17.6835C150.884 17.6835 150.504 17.6217 150.113 17.4969H150.114ZM165.858 13.5758V17.6219C165.858 17.8842 165.881 18.1434 165.93 18.4002C165.978 18.6562 166.075 18.8878 166.227 19.0956C166.378 19.3022 166.583 19.4685 166.843 19.593C167.103 19.7184 167.453 19.7798 167.891 19.7798C168.206 19.7798 168.562 19.7455 168.959 19.6759C169.356 19.6065 169.733 19.4966 170.089 19.344V17.6427H168.712C168.712 16.2594 168.709 14.8936 168.702 13.5451C168.695 12.1962 168.692 10.8371 168.692 9.46755H165.968L163.428 13.1815C163.196 13.5135 162.981 13.8283 162.783 14.1256C162.585 14.4231 162.408 14.6856 162.25 14.9139C162.094 15.142 161.968 15.329 161.871 15.4748C161.776 15.6198 161.728 15.6992 161.728 15.713V15.6925H161.646V9.46755H157.456V11.2931H158.791V19.6131H161.531L164.374 15.6092C164.717 15.1249 165.016 14.6927 165.269 14.3128C165.523 13.9321 165.684 13.6869 165.754 13.576H165.857L165.858 13.5758ZM176.682 17.7668H176.579L175.717 14.8415L174.093 9.44689H170.91V11.4799H171.957L174.608 19.3846H175.963C175.825 19.7997 175.699 20.1703 175.582 20.4944C175.467 20.8205 175.336 21.0929 175.192 21.314C175.049 21.5354 174.874 21.7022 174.668 21.8126C174.463 21.9233 174.204 21.9782 173.888 21.9782C173.655 21.9782 173.409 21.9609 173.149 21.9266C172.889 21.8922 172.615 21.847 172.328 21.7923C172.259 22.1104 172.2 22.4206 172.152 22.7257C172.104 23.0296 172.053 23.3408 171.998 23.6593C172.642 23.8662 173.169 23.9881 173.58 24.0227C173.991 24.0569 174.299 24.0742 174.504 24.0742C175.039 24.0742 175.484 24.0121 175.84 23.8873C176.195 23.763 176.498 23.5907 176.744 23.3693C176.99 23.1479 177.195 22.8816 177.36 22.5698C177.524 22.2584 177.668 21.9235 177.791 21.564C178.408 19.8625 179.024 18.1615 179.64 16.46C180.256 14.7585 180.865 13.0502 181.468 11.3352H182.454V9.44689H177.606V11.3352H178.757L177.586 14.883C177.435 15.3677 177.284 15.8477 177.134 16.3253C176.983 16.8022 176.832 17.2822 176.683 17.7668H176.682ZM191.001 15.1734C190.959 15.1039 190.894 14.9829 190.805 14.8095C190.716 14.6376 190.613 14.4367 190.496 14.2087C190.38 13.9805 190.26 13.749 190.137 13.5131C190.014 13.2783 189.898 13.064 189.788 12.8703C189.624 12.5657 189.445 12.2347 189.254 11.8741C189.062 11.5141 188.874 11.1731 188.689 10.8471C188.505 10.523 188.344 10.2315 188.207 9.97584C188.07 9.72039 187.973 9.54383 187.919 9.44671H183.4V11.2927H184.756V19.6127H187.528V13.472H187.632C187.659 13.5278 187.71 13.6305 187.786 13.7832C187.861 13.936 187.946 14.1049 188.043 14.2917C188.138 14.4776 188.24 14.6754 188.35 14.8826C188.459 15.0897 188.562 15.284 188.658 15.4642C188.809 15.7266 188.97 16.0103 189.142 16.3147C189.312 16.6181 189.473 16.9091 189.624 17.1862C189.775 17.4621 189.908 17.7047 190.024 17.9114C190.14 18.119 190.213 18.258 190.24 18.3265H191.842C192.076 17.8292 192.328 17.3205 192.602 16.802C192.876 16.2829 193.13 15.8166 193.362 15.4012C193.417 15.2907 193.486 15.1559 193.568 14.9965C193.649 14.8378 193.731 14.6754 193.814 14.5085C193.895 14.3429 193.975 14.181 194.05 14.0216C194.125 13.8629 194.197 13.7207 194.265 13.5966H194.348V17.4967C194.362 17.8158 194.389 18.1125 194.43 18.389C194.471 18.6662 194.557 18.9081 194.687 19.1154C194.818 19.3228 195.013 19.486 195.272 19.6026C195.532 19.7198 195.881 19.7792 196.32 19.7792C196.648 19.7792 197.004 19.745 197.388 19.6754C197.77 19.606 198.134 19.496 198.476 19.3435V17.6422H197.1V11.2927H198.353V9.44671H194.019C193.964 9.54364 193.868 9.72039 193.731 9.97584C193.595 10.2315 193.44 10.5264 193.269 10.8574C193.098 11.1895 192.917 11.5357 192.725 11.8952C192.534 12.255 192.362 12.5873 192.212 12.8906C192.102 13.0993 191.985 13.3263 191.863 13.5756C191.739 13.8245 191.623 14.0595 191.513 14.2809C191.404 14.5029 191.308 14.6958 191.226 14.8625C191.144 15.0285 191.095 15.131 191.082 15.1734H191H191.001Z" fill="black"/>
<path d="M179.77 33.2853C179.77 32.6741 179.634 32.2453 179.363 31.9982C179.092 31.752 178.71 31.6285 178.215 31.6285C177.914 31.6285 177.605 31.6626 177.289 31.7303C176.973 31.798 176.674 31.8968 176.393 32.0265L176.548 32.4399C177.09 32.2453 177.605 32.1482 178.092 32.1482C178.304 32.1482 178.484 32.1688 178.632 32.2107C178.78 32.2531 178.897 32.3221 178.983 32.4202C179.068 32.5178 179.129 32.6492 179.167 32.8118C179.205 32.9767 179.224 33.1796 179.224 33.4245V33.8427L177.887 33.9157C177.625 33.9302 177.383 33.9692 177.16 34.0355C176.938 34.1015 176.745 34.1962 176.584 34.3213C176.423 34.4468 176.297 34.5992 176.208 34.779C176.119 34.9592 176.075 35.1671 176.075 35.4024C176.075 35.5485 176.095 35.7044 176.136 35.8709C176.176 36.0369 176.252 36.193 176.357 36.3388C176.464 36.4838 176.608 36.6056 176.79 36.7026C176.972 36.7995 177.203 36.8475 177.484 36.8475C177.567 36.8475 177.664 36.844 177.778 36.8373C177.891 36.8302 178.019 36.8081 178.164 36.7705C178.308 36.732 178.467 36.6683 178.642 36.5773C178.817 36.4875 179.005 36.3597 179.204 36.1931L179.225 36.2038C179.232 36.4603 179.281 36.6265 179.374 36.7027C179.466 36.7792 179.602 36.817 179.78 36.817C179.877 36.817 179.997 36.8015 180.14 36.7712C180.284 36.7405 180.415 36.6988 180.532 36.6436L180.491 36.3079H179.77V33.2855L179.77 33.2853ZM179.224 34.2906V35.6798C178.963 35.9241 178.706 36.1001 178.452 36.2077C178.198 36.3159 177.951 36.3695 177.711 36.3695C177.347 36.3695 177.085 36.2843 176.924 36.1133C176.762 35.9427 176.681 35.694 176.681 35.3663C176.681 35.0742 176.776 34.839 176.965 34.6604C177.153 34.4829 177.437 34.3836 177.813 34.3633L179.225 34.2906H179.224ZM175.241 36.7705C175.385 36.7387 175.515 36.6955 175.632 36.6399V36.297H174.87V31.7115H174.324V33.8427H171.679V31.7115H170.433V32.1688H171.123V36.7755H171.669V34.3211H174.324V36.2036C174.324 36.4601 174.372 36.6263 174.469 36.7026C174.565 36.779 174.701 36.8168 174.881 36.8168C174.977 36.8168 175.097 36.8014 175.241 36.7705H175.241ZM169.445 33.2853C169.445 32.6741 169.31 32.2453 169.039 31.9982C168.767 31.752 168.385 31.6285 167.891 31.6285C167.589 31.6285 167.28 31.6626 166.964 31.7303C166.649 31.798 166.35 31.8968 166.07 32.0265L166.224 32.4399C166.766 32.2453 167.28 32.1482 167.767 32.1482C167.979 32.1482 168.16 32.1688 168.308 32.2107C168.455 32.2531 168.572 32.3221 168.658 32.4202C168.743 32.5178 168.805 32.6492 168.844 32.8118C168.881 32.9767 168.9 33.1796 168.9 33.4245V33.8427L167.562 33.9157C167.3 33.9302 167.059 33.9692 166.836 34.0355C166.612 34.1015 166.42 34.1962 166.259 34.3213C166.098 34.4468 165.972 34.5992 165.884 34.779C165.794 34.9592 165.75 35.1671 165.75 35.4024C165.75 35.5485 165.77 35.7044 165.811 35.8709C165.853 36.0369 165.927 36.193 166.033 36.3388C166.139 36.4838 166.283 36.6056 166.465 36.7026C166.646 36.7995 166.879 36.8475 167.16 36.8475C167.242 36.8475 167.341 36.844 167.453 36.8373C167.567 36.8302 167.696 36.8081 167.839 36.7705C167.984 36.732 168.143 36.6683 168.319 36.5773C168.494 36.4875 168.681 36.3597 168.879 36.1931L168.9 36.2038C168.906 36.4603 168.956 36.6265 169.049 36.7027C169.142 36.7792 169.277 36.817 169.455 36.817C169.552 36.817 169.672 36.8015 169.817 36.7712C169.96 36.7405 170.09 36.6988 170.207 36.6436L170.167 36.3079H169.445V33.2855V33.2853ZM168.9 34.2906V35.6798C168.639 35.9241 168.382 36.1001 168.128 36.2077C167.874 36.3159 167.626 36.3695 167.387 36.3695C167.023 36.3695 166.76 36.2843 166.599 36.1133C166.438 35.9427 166.358 35.694 166.358 35.3663C166.358 35.0742 166.451 34.839 166.641 34.6604C166.828 34.4829 167.112 34.3836 167.49 34.3633L168.9 34.2906ZM163.723 32.7512V36.2038C163.729 36.4603 163.777 36.6265 163.866 36.7027C163.956 36.7792 164.09 36.817 164.268 36.817C164.364 36.817 164.482 36.8015 164.623 36.7707C164.764 36.7388 164.892 36.6957 165.009 36.64V36.2971H164.227V32.169H164.957V31.7117H163.67L162.281 34.6748L161.767 35.8088H161.757L161.221 34.6859L159.749 31.7119H158.38V32.1692H159.152V36.7759H159.657V32.6886H159.687L160.173 33.6971L161.504 36.3392H162.01L163.289 33.625L163.681 32.7513H163.723L163.723 32.7512ZM155.539 36.328H155.487L155.148 35.1738L154.077 31.7117H153.129V32.1908H153.645L155.117 36.7759H155.395L155.065 37.7988C154.969 38.081 154.856 38.2732 154.725 38.3728C154.594 38.4719 154.44 38.522 154.262 38.522C154.146 38.522 154.016 38.5101 153.872 38.4855C153.727 38.4619 153.573 38.4327 153.408 38.3971L153.305 38.8306C153.628 38.9302 153.874 38.9832 154.041 38.9901C154.21 38.9972 154.32 39.0003 154.376 39.0003C154.678 39.0003 154.916 38.9231 155.091 38.7672C155.266 38.6113 155.412 38.3469 155.529 37.9729L157.422 32.1909H157.948V31.7119H156.208V32.1909H156.887L155.909 35.1983L155.539 36.3282L155.539 36.328ZM152.101 33.2855C152.101 32.6743 151.966 32.2455 151.694 31.9984C151.423 31.7522 151.041 31.6287 150.546 31.6287C150.245 31.6287 149.936 31.6627 149.62 31.7305C149.304 31.7982 149.006 31.897 148.725 32.0267L148.879 32.4401C149.422 32.2455 149.936 32.1483 150.424 32.1483C150.635 32.1483 150.815 32.169 150.963 32.2109C151.111 32.2533 151.228 32.3223 151.313 32.4204C151.4 32.518 151.461 32.6494 151.499 32.812C151.536 32.9768 151.556 33.1798 151.556 33.4247V33.8429L150.218 33.9158C149.956 33.9304 149.715 33.9694 149.491 34.0357C149.269 34.1017 149.077 34.1964 148.915 34.3214C148.754 34.447 148.628 34.5994 148.54 34.7791C148.45 34.9594 148.406 35.1672 148.406 35.4026C148.406 35.5487 148.427 35.7046 148.467 35.8711C148.508 36.037 148.583 36.1931 148.689 36.339C148.795 36.4839 148.939 36.6058 149.121 36.7027C149.303 36.7997 149.533 36.8477 149.815 36.8477C149.899 36.8477 149.995 36.8441 150.109 36.8375C150.222 36.8304 150.352 36.8082 150.496 36.7707C150.639 36.7321 150.799 36.6685 150.973 36.5775C151.148 36.4877 151.335 36.3599 151.535 36.1933L151.556 36.2039C151.562 36.4605 151.612 36.6266 151.705 36.7029C151.797 36.7794 151.932 36.8172 152.111 36.8172C152.207 36.8172 152.327 36.8017 152.471 36.7714C152.615 36.7407 152.746 36.699 152.863 36.6438L152.821 36.3081H152.1V33.2857L152.101 33.2855ZM151.556 34.2907V35.68C151.294 35.9243 151.037 36.1003 150.783 36.2078C150.53 36.3161 150.282 36.3697 150.042 36.3697C149.678 36.3697 149.416 36.2845 149.255 36.1135C149.094 35.9429 149.012 35.6941 149.012 35.3665C149.012 35.0744 149.107 34.8392 149.296 34.6606C149.484 34.4831 149.768 34.3838 150.145 34.3635L151.556 34.2907H151.556ZM145.421 33.1465C145.633 33.1465 145.839 33.1705 146.038 33.2195C146.237 33.2682 146.412 33.3515 146.563 33.4686C146.714 33.5875 146.834 33.7404 146.924 33.9318C147.012 34.1224 147.057 34.3598 147.057 34.6437C147.057 34.9079 147.017 35.1412 146.939 35.3453C146.859 35.5503 146.754 35.7232 146.62 35.8657C146.486 36.0073 146.329 36.1152 146.151 36.1881C145.973 36.2607 145.781 36.297 145.575 36.297H143.701V33.1463H145.421L145.421 33.1465ZM142.487 29.6839V30.162H143.116V36.2971H142.487V36.7759H145.591C145.88 36.7759 146.15 36.7286 146.401 36.6352C146.652 36.5416 146.868 36.4052 147.052 36.2242C147.233 36.0445 147.377 35.8222 147.484 35.5587C147.591 35.2956 147.644 34.9903 147.644 34.6439C147.644 34.3944 147.608 34.1516 147.535 33.9158C147.463 33.6807 147.342 33.4706 147.169 33.2872C146.997 33.1035 146.774 32.9543 146.499 32.8393C146.222 32.7257 145.879 32.668 145.467 32.668H143.701V30.162H146.45V31.0876H146.955V29.6841H142.487L142.487 29.6839ZM138.704 36.1152C138.618 36.0289 138.514 35.9851 138.39 35.9851C138.266 35.9851 138.161 36.0289 138.076 36.1152C137.99 36.2023 137.947 36.3038 137.947 36.4222C137.947 36.5466 137.992 36.6536 138.081 36.7439C138.17 36.8339 138.276 36.8793 138.4 36.8793C138.516 36.8793 138.617 36.8339 138.704 36.7439C138.789 36.6536 138.833 36.5466 138.833 36.4222C138.833 36.304 138.789 36.2023 138.704 36.1152H138.704ZM136.485 33.2708C136.485 33.6611 136.446 34.0418 136.368 34.4141C136.288 34.7862 136.152 35.1165 135.961 35.4054C135.769 35.6936 135.513 35.9267 135.194 36.1042C134.876 36.2819 134.475 36.3697 133.996 36.3697C133.899 36.3697 133.784 36.3647 133.65 36.3546C133.516 36.3433 133.374 36.328 133.223 36.3079C133.072 36.2869 132.92 36.2594 132.765 36.2242C132.611 36.1904 132.461 36.1481 132.317 36.1003L132.184 36.553C132.286 36.5939 132.411 36.6324 132.559 36.6704C132.706 36.7072 132.862 36.7401 133.027 36.7673C133.192 36.7937 133.36 36.8144 133.532 36.8283C133.703 36.8421 133.868 36.8479 134.026 36.8479C134.568 36.8479 135.033 36.7554 135.421 36.5677C135.808 36.3809 136.125 36.1223 136.37 35.7929C136.616 35.464 136.794 35.0748 136.907 34.6234C137.017 34.1722 137.073 33.6837 137.073 33.1568C137.073 32.734 137.039 32.3078 136.97 31.8784C136.901 31.4488 136.767 31.0638 136.564 30.7241C136.362 30.3844 136.078 30.1075 135.712 29.8924C135.346 29.6768 134.862 29.5698 134.259 29.5698C133.869 29.5698 133.511 29.6015 133.185 29.6634C132.861 29.7259 132.599 29.7953 132.4 29.871V31.3688H132.904V30.2558C132.98 30.2355 133.074 30.2126 133.187 30.1879C133.3 30.1639 133.418 30.1432 133.541 30.1261C133.664 30.1092 133.791 30.0943 133.92 30.0839C134.05 30.0738 134.17 30.0688 134.28 30.0688C134.662 30.0688 134.993 30.1347 135.27 30.267C135.547 30.3981 135.775 30.5833 135.953 30.8225C136.131 31.0618 136.263 31.3491 136.348 31.6856C136.433 32.0226 136.479 32.3978 136.486 32.8139L133.594 32.7512V33.313L136.486 33.2708H136.485ZM131.2 36.1152C131.115 36.0289 131.009 35.9851 130.886 35.9851C130.763 35.9851 130.658 36.0289 130.573 36.1152C130.486 36.2023 130.444 36.3038 130.444 36.4222C130.444 36.5466 130.488 36.6536 130.577 36.7439C130.667 36.8339 130.774 36.8793 130.898 36.8793C131.013 36.8793 131.115 36.8339 131.2 36.7439C131.286 36.6536 131.329 36.5466 131.329 36.4222C131.329 36.304 131.286 36.2023 131.2 36.1152H131.2ZM129.579 36.7757V36.297H128.93V30.1518H129.579V29.6731H127.705V30.1518H128.344V32.7608H124.792V30.1518H125.441V29.6731H123.567V30.1518H124.206V36.297H123.567V36.7757H125.441V36.297H124.792V33.2818H128.344V36.297H127.705V36.7757H129.579ZM119.805 36.1152C119.719 36.0289 119.615 35.9851 119.491 35.9851C119.368 35.9851 119.263 36.0289 119.177 36.1152C119.092 36.2023 119.048 36.3038 119.048 36.4222C119.048 36.5466 119.093 36.6536 119.182 36.7439C119.272 36.8339 119.378 36.8793 119.501 36.8793C119.618 36.8793 119.719 36.8339 119.805 36.7439C119.891 36.6536 119.933 36.5466 119.933 36.4222C119.933 36.304 119.891 36.2023 119.805 36.1152H119.805ZM116.928 32.7512V36.2038C116.935 36.4603 116.983 36.6265 117.072 36.7027C117.161 36.7792 117.295 36.817 117.474 36.817C117.57 36.817 117.688 36.8015 117.829 36.7707C117.969 36.7388 118.099 36.6957 118.215 36.64V36.2971H117.433V32.169H118.163V31.7117H116.877L115.487 34.6748L114.972 35.8088H114.962L114.427 34.6859L112.955 31.7119H111.585V32.1692H112.358V36.7759H112.863V32.6886H112.893L113.379 33.6971L114.71 36.3392H115.216L116.496 33.625L116.887 32.7513H116.929L116.928 32.7512ZM109.836 32.6165V36.2038C109.842 36.4603 109.892 36.6265 109.985 36.7027C110.078 36.7792 110.214 36.817 110.392 36.817C110.488 36.817 110.607 36.8015 110.752 36.7707C110.896 36.7388 111.027 36.6957 111.143 36.64V36.2971H110.382V31.7117H109.847L107.786 34.9767L107.263 35.8186H107.222V31.7117H105.925V32.169H106.677V36.7757H107.181L109.199 33.5932L109.806 32.6163H109.836L109.836 32.6165ZM99.2546 29.6733H97.4326V30.152H97.9888L99.8511 35.0911H100.12L99.9338 35.6069C99.8311 35.8882 99.7156 36.0795 99.5892 36.1786C99.4627 36.2785 99.3094 36.3278 99.1315 36.3278C99.0146 36.3278 98.8838 36.3159 98.7394 36.2919C98.5957 36.2678 98.4425 36.2385 98.2765 36.2036L98.1741 36.6367C98.4966 36.7359 98.741 36.7883 98.9092 36.7961C99.0776 36.8028 99.1894 36.8064 99.2439 36.8064C99.5461 36.8064 99.7837 36.7267 99.9552 36.5675C100.127 36.4086 100.28 36.1446 100.418 35.7775L102.446 30.1522H102.981V29.6735H101.189V30.1522H101.879L100.953 32.7307L100.284 34.6749H100.243L99.5424 32.7208L98.585 30.1524H99.2547V29.6736L99.2546 29.6733ZM97.2263 29.6733H92.2031V31.181H92.7084V30.1518H94.4371V36.297H93.6962V36.7757H95.7858V36.297H95.0242V30.1518H96.7224V31.181H97.2366L97.2265 29.6733H97.2263ZM89.4449 36.297H88.4468V30.1618H91.3493V31.0875H91.8534V29.6839H87.2216V30.162H87.8595V36.2971H87.1802V36.7759H89.4451V36.2971L89.4449 36.297ZM82.5024 35.4233L81.925 34.0922L79.9858 29.6733H78.688V30.152H79.3161V36.2971H78.688V36.7759H80.5515V36.2971H79.8825L79.8621 30.7446H79.8825L80.3562 31.8466L82.2289 36.0795H82.7958L84.6168 31.9305L85.1219 30.7446H85.1423V36.2971H84.4833V36.7759H86.3664V36.2971H85.7286V30.152H86.3664V29.6733H85.0692L83.1503 34.0716L82.563 35.4233H82.5018H82.5024Z" fill="black"/>
<path d="M201.244 4.53809C201.539 4.53809 201.826 4.61437 202.108 4.76768C202.388 4.92024 202.608 5.13941 202.764 5.4237C202.921 5.70855 203 6.00586 203 6.31415C203 6.62003 202.923 6.91473 202.767 7.19661C202.613 7.47922 202.397 7.69839 202.118 7.85431C201.839 8.01078 201.547 8.08873 201.244 8.08873C200.939 8.08873 200.648 8.01096 200.369 7.85431C200.09 7.69858 199.873 7.47922 199.718 7.19661C199.563 6.91473 199.485 6.62003 199.485 6.31415C199.485 6.00586 199.563 5.70855 199.721 5.4237C199.879 5.13941 200.098 4.92005 200.379 4.76768C200.66 4.61437 200.948 4.53809 201.244 4.53809H201.244ZM201.244 4.83186C200.997 4.83186 200.756 4.89624 200.522 5.02387C200.289 5.1515 200.106 5.33458 199.974 5.57236C199.842 5.80995 199.776 6.0574 199.776 6.31434C199.776 6.57035 199.841 6.8152 199.97 7.04981C200.1 7.28442 200.281 7.46731 200.514 7.5983C200.747 7.72909 200.99 7.79514 201.244 7.79514C201.497 7.79514 201.74 7.72928 201.973 7.5983C202.206 7.4675 202.387 7.28442 202.516 7.04981C202.644 6.8152 202.709 6.57035 202.709 6.31434C202.709 6.0574 202.643 5.80995 202.512 5.57236C202.381 5.33458 202.198 5.1515 201.963 5.02387C201.728 4.89624 201.489 4.83186 201.244 4.83186ZM200.472 7.29373V5.38593H201.122C201.345 5.38593 201.505 5.40361 201.605 5.43877C201.705 5.47431 201.784 5.53515 201.843 5.62352C201.902 5.71115 201.931 5.80418 201.931 5.90297C201.931 6.04196 201.882 6.16401 201.783 6.26671C201.684 6.37034 201.553 6.4282 201.39 6.44104C201.456 6.46895 201.51 6.50281 201.55 6.54226C201.626 6.61686 201.719 6.74282 201.83 6.92032L202.06 7.29373H201.69L201.521 6.99344C201.389 6.75659 201.282 6.60793 201.201 6.54858C201.145 6.50523 201.064 6.48365 200.957 6.48439H200.778V7.29373H200.472H200.472ZM200.777 6.21927H201.148C201.325 6.21927 201.446 6.19285 201.51 6.13982C201.574 6.08698 201.607 6.01628 201.607 5.92939C201.607 5.87321 201.591 5.8226 201.56 5.7785C201.529 5.73348 201.486 5.70055 201.431 5.67878C201.376 5.6572 201.274 5.64585 201.125 5.64585H200.777V6.21927Z" fill="black"/>
</g>
<defs>
<clipPath id="clip0_8_294">
<rect width="203" height="39" fill="white"/>
</clipPath>
</defs>
</svg>
