<svg width="51" height="60" viewBox="0 0 51 60" fill="none" xmlns="http://www.w3.org/2000/svg">
<path d="M17.4961 23.6201H11.4329V31.9495H17.4961V23.6201Z" fill="#FEE500" stroke="black" stroke-width="0.745712" stroke-miterlimit="22.9256"/>
<path d="M39.279 23.2939H32.6645V32.0929H39.279V23.2939Z" fill="#FEE500" stroke="black" stroke-width="0.745712" stroke-miterlimit="22.9256"/>
<path fill-rule="evenodd" clip-rule="evenodd" d="M24.7227 56.0599L11.5141 43.3413C9.30929 41.4427 6.79823 38.7275 5.41 36.1347C2.81728 31.2964 2.10276 26.2947 2.81728 21.6808C5.0017 7.55359 19.7618 -1.73528 34.5015 4.36883C45.9952 9.14597 51.6094 23.9878 45.2399 35.8898C44.4437 37.3596 43.5046 38.7275 42.4226 39.9524L39.0745 43.3209C37.5842 44.5049 36.8493 45.5665 35.8285 46.4852C32.5213 49.1596 28.4791 53.508 25.2739 56.5703L24.7431 56.0599H24.7227ZM24.049 23.0895H26.458V20.6805H24.049V23.0895ZM34.1136 24.0694H38.8295V31.5209H33.3583V24.0694H34.1341H34.1136ZM12.4328 24.0694H17.1487V31.5209H11.6774V24.0694H12.4532H12.4328ZM23.2732 31.5209H19.5577V18.4553C21.5584 17.9857 23.9673 15.6992 25.2535 15.6992C26.5396 15.6992 28.9486 18.0061 30.9493 18.4553V31.5209H26.458V27.5808H24.049V31.5209H23.2732ZM23.6407 13.576L17.1487 17.1691V21.6808H9.26846V33.9299H41.2385V21.6808H33.3583V17.2099L27.05 13.6577L26.458 13.5148V10.2892H29.4182V7.88023H24.049V13.3515L23.6407 13.576ZM0.0204151 24.6002C0.0204151 29.5407 0.87785 33.3991 3.246 37.523C5.55291 41.5447 8.90099 44.4641 12.1266 47.4243L25.2331 60L41.3406 44.4845C44.2191 41.7285 46.1177 39.9115 48.2613 35.3181C50.6091 30.2756 51.0582 23.3345 49.3229 18.1082C47.0568 11.2283 43.1575 5.9408 36.3389 2.51106C33.2358 0.939095 29.7856 0 26.4376 0C21.048 0 19.2106 0.265396 14.2702 2.36815C12.0041 3.32766 8.9214 5.6754 7.28819 7.41068C4.55257 10.2892 2.91936 12.6778 1.46989 16.8016C0.551208 19.4352 0 22.2321 0 24.6002H0.0204151Z" fill="black"/>
</svg>
