<svg width="48" height="60" viewBox="0 0 48 60" fill="none" xmlns="http://www.w3.org/2000/svg">
<path fill-rule="evenodd" clip-rule="evenodd" d="M10.9596 42.9551L18.2878 42.9224L22.001 45.0652L18.9421 56.81L14.2475 54.5036L7.36087 54.9453L10.9596 42.9551Z" fill="#FEE500"/>
<path fill-rule="evenodd" clip-rule="evenodd" d="M35.987 43.0701L28.6588 43.0537L24.9456 45.1966L28.0045 56.9414L32.6991 54.635L39.5857 55.0766L35.987 43.0701Z" fill="#FEE500"/>
<path fill-rule="evenodd" clip-rule="evenodd" d="M26.5158 45.2781C30.1963 43.3315 27.9716 43.8713 34.0731 43.8713C35.3326 43.8713 35.5453 46.7339 36.1505 48.2225L37.6718 53.2934C36.3468 53.1625 34.4984 52.8353 33.2552 52.8353C32.6663 52.819 32.012 53.4569 31.374 54.0622C30.7852 54.6347 29.8201 55.289 29.133 55.8288C28.6096 54.1112 26.3686 47.5682 26.1069 45.5071L26.5158 45.2944V45.2781ZM12.6281 23.8986C12.6281 13.7405 23.5551 9.86369 29.8528 14.5747C38.6369 21.1505 34.1712 34.4656 23.3261 34.4656C17.5845 34.4656 12.6281 29.4111 12.6281 23.8986ZM23.506 10.3217C21.7394 10.6161 20.5289 9.97819 16.8648 12.0883C12.6772 14.4929 10.06 19.1385 10.3217 24.1439C10.9433 35.6761 24.6838 41.1232 33.0752 32.8135C35.398 30.5071 36.9193 26.5976 36.8866 23.3915C36.4286 18.6968 35.2508 16.1778 31.9629 13.2824C29.6565 11.2541 26.5485 10.3053 23.506 10.3381V10.3217ZM27.9062 59.9509V59.9673L29.9019 58.3152L32.6827 55.9924C33.6478 55.2072 33.3533 55.1908 34.9564 55.3708L40.9106 55.976L36.952 42.9226C36.4286 41.3359 36.7721 41.3032 37.7699 39.4711C38.8004 37.59 40.6489 37.2465 42.4973 36.1014L43.8877 35.3326V30.0654C43.8713 28.217 45.0491 26.9738 46.2105 25.0109C46.4886 24.5365 46.7666 24.0622 47.0774 23.5714L44.2966 18.9095C43.9531 18.3697 43.8877 18.2715 43.8877 17.2574V11.7448C42.9716 11.2377 38.9804 9.17666 38.3915 8.58779L35.349 3.20611H29.9509C28.7732 3.20611 28.8223 3.20611 28.0371 2.71538L23.5387 0C23.4896 0 23.1134 0.278081 22.4591 0.670665C21.1341 1.43948 19.4002 2.50273 19.0403 2.73173C17.8626 3.46783 16.7339 3.22246 15.2127 3.22246H11.7448L8.89858 8.37514C8.34242 9.06216 4.66194 10.976 3.20611 11.7612V18.1243L2.76445 18.9749L0 23.5551L2.76445 28.1352C3.48419 29.2966 3.20611 30.1636 3.20611 31.7666V35.349L8.68593 38.506C8.89858 38.7186 9.02944 38.9477 9.25845 39.3893C10.7634 42.1701 10.6489 41.1887 9.88004 43.7568L6.19956 56.0742L13.7077 55.2236C14.3784 56.2377 18.0752 59.0676 19.2039 59.9836L24.0294 44.771C24.3893 49.0403 24.0458 47.3064 25.2072 51.2159L27.8735 60L27.9062 59.9509ZM17.5845 55.3217C15.4907 54.7655 16.0469 52.6718 12.8735 52.9335L9.4711 53.1625C9.88004 51.8212 11.6794 46.7176 11.6794 45.916L12.2683 43.8386H17.1429C18.795 43.8222 19.3021 44.5583 21.0851 45.5071L18.4024 55.5344L17.5845 55.3217ZM5.83969 12.9062L10.4035 10.3708L13.1352 5.46347C14.4766 5.46347 17.7317 5.79062 18.6641 5.57797L23.5551 2.68266L25.5507 3.92585C29.2148 6.08506 27.4646 5.59433 31.7666 5.59433L33.9749 5.47983L36.723 10.3871L41.6303 13.1352L41.4995 18.6641L44.3784 23.5387L41.4995 28.5114L41.6303 33.9749C40.8124 34.4002 37.0338 36.3959 36.6085 36.8539L33.9749 41.614L28.5115 41.4831L23.5387 44.362L18.6641 41.4831L13.1352 41.614L10.4526 36.7394L5.49618 33.9586L5.56161 32.3719L5.59433 28.3806L3.9422 25.5507L2.71538 23.5714L5.61069 18.6641L5.54526 14.7219L5.47983 13.1352L5.82334 12.9389L5.83969 12.9062Z" fill="black"/>
</svg>
