<svg width="18" height="18" viewBox="0 0 18 18" fill="none" xmlns="http://www.w3.org/2000/svg">
<g clip-path="url(#clip0_8_304)">
<path fill-rule="evenodd" clip-rule="evenodd" d="M16.6384 17.9895H6.10352e-05V1.21296H8.84219V2.75234H1.53944V16.4501H15.2372V9.14733H16.7766V17.9895H16.6384ZM7.46581 10.5226H8.15764C8.19186 10.5226 8.33391 10.365 8.42679 10.2621C8.45822 10.2272 8.48532 10.1971 8.50418 10.1783L9.43359 9.24566C11.2719 7.39857 15.0717 3.58063 15.8161 2.87749L15.1046 2.18092C14.4352 2.89258 10.9122 6.39471 9.54044 7.75838L9.01497 8.28105L8.20596 9.09048C8.03919 9.25725 7.89937 9.38869 7.78973 9.49177C7.61401 9.65701 7.52364 9.74179 7.48704 9.82015C7.45017 9.89893 7.45324 10.0101 7.45953 10.2383C7.46176 10.3224 7.46442 10.4196 7.46595 10.5226H7.46581ZM5.88802 11.8449V9.39749C5.88802 9.15962 6.1041 8.96449 6.2664 8.81797C6.29797 8.78989 6.32675 8.76405 6.35287 8.73779L14.0638 1.02649C14.1337 0.95651 14.2108 0.875637 14.2962 0.786104C14.5528 0.517225 14.8795 0.174736 15.0529 0.061039L15.1461 0L17.9999 2.83321L17.9367 2.9275C17.8137 3.11117 17.4625 3.44612 17.1885 3.70773C17.0967 3.79517 17.014 3.87423 16.9431 3.94519L10.752 10.1364L10.6098 10.2821C10.1556 10.7505 8.84624 12.1012 8.67081 12.1012H6.14447C6.06094 12.1012 6.00116 12.0832 5.95353 12.0356C5.9059 11.9879 5.88788 11.9282 5.88788 11.8446L5.88802 11.8449Z" fill="black"/>
</g>
<defs>
<clipPath id="clip0_8_304">
<rect width="18" height="17.9893" fill="white"/>
</clipPath>
</defs>
</svg>
