<svg width="60" height="60" viewBox="0 0 60 60" fill="none" xmlns="http://www.w3.org/2000/svg">
<path d="M40.8542 26.8011C45.349 26.8011 48.9928 23.1573 48.9928 18.6625C48.9928 14.1677 45.349 10.5239 40.8542 10.5239C36.3593 10.5239 32.7156 14.1677 32.7156 18.6625C32.7156 23.1573 36.3593 26.8011 40.8542 26.8011Z" fill="#FEE500"/>
<path fill-rule="evenodd" clip-rule="evenodd" d="M8.91217 35.9226C8.89605 35.9871 8.87994 36.0677 8.87994 36.1805C8.87994 39.3392 12.4255 36.0355 18.7591 40.5157C18.6785 40.6285 19.9678 40.9025 19.9678 41.8533C19.9194 46.3336 20.3546 47.0911 17.1152 45.7857C14.3755 44.6898 13.473 44.3352 9.58904 44.3352C8.81547 44.3352 8.28364 46.5109 9.91136 46.5753C16.3255 46.8654 18.3078 49.2667 19.1459 49.6535C20.145 50.1209 19.9517 50.5399 19.9517 51.7164C19.9517 52.4899 20.0645 53.2313 21.2248 53.2313C23.1265 53.2313 21.3215 50.1209 23.0137 49.6696C23.062 49.6535 23.2716 49.5085 23.5455 49.3151C29.4118 45.1571 33.3763 47.8807 33.3118 45.4795C33.2957 45.0282 33.0379 44.3352 32.5866 44.3352C26.9138 44.3352 24.3513 46.4142 23.3038 46.4142C22.7075 46.4142 22.2079 45.9307 22.2079 45.3183V41.8533C22.2079 41.0637 22.7881 40.967 23.4811 40.4835C29.6052 36.2611 33.2796 39.0492 33.2796 36.4545C33.2796 35.4714 32.2643 35.4714 31.6358 35.4714C27.1716 35.4714 24.448 37.5504 23.2877 37.5504C22.6914 37.5504 22.1918 37.0669 22.1918 36.4545V32.9895C22.1918 32.1998 22.7397 32.1354 23.7873 31.394C28.2192 28.2836 33.3924 28.8477 38.8074 28.8477C39.4037 28.8477 39.9033 29.3312 39.9033 29.9436V52.1031C39.9033 53.5375 38.0983 53.199 36.5512 53.1668C30.9589 53.0701 26.3497 53.2313 22.3207 56.2772C20.9992 57.2764 20.5963 56.7446 19.4359 55.9871C10.9267 50.4593 2.25625 55.2296 2.25625 52.1031V29.9436C2.25625 28.5093 4.10959 28.8477 5.41499 28.8316C9.92748 28.7671 15.2135 28.7027 18.8235 31.7164C19.2748 32.087 19.9517 32.1031 19.9517 32.9895L19.9194 36.6962C19.5971 38.0822 18.05 37.3892 17.3086 36.9702C15.6487 36.0677 9.39565 34.6656 8.89605 35.9065L8.91217 35.9226ZM33.2957 12.8284C31.6519 15.0201 31.1201 17.2764 31.2329 19.9839H33.473C32.506 13.4408 39.7905 8.60596 45.3666 12.4738C50.2659 15.8743 49.4762 22.5625 45.5117 25.2055C42.6914 27.0749 38.0661 26.6076 34.6011 26.5915C29.9597 26.5753 26.3981 26.7365 22.224 29.7341C20.2256 31.1684 20.3223 28.9927 15.1491 27.3489C13.6664 26.8815 12.1354 26.5915 10.6849 26.5915H0.709106L0 27.3006V54.7301C0 55.8098 3.09428 55.4392 4.02901 55.4392C10.7655 55.4392 13.9887 54.8751 19.4521 58.9041C20.4996 59.6777 21.1765 60.1773 21.7566 59.6293C27.5423 54.3594 32.8284 55.4714 40.1289 55.4714C41.2409 55.4714 42.1434 55.3425 42.1434 54.4561V38.8074C42.1434 37.6793 43.2071 37.7115 43.8034 37.7115C46.2208 37.7115 46.5753 37.7115 46.5753 35.1974C46.5753 34.6334 47.0105 34.1499 47.5745 34.1015C48.058 34.0693 50.2337 32.5705 51.2006 31.942C52.6672 30.975 53.9243 34.311 55.5359 31.4424L59.8711 23.8356C60.0161 23.2716 59.0492 22.5302 58.5012 22.4013C57.8243 22.2401 57.4698 21.4988 57.7599 20.8703C57.9855 20.3868 57.9855 17.3409 57.776 16.8574C57.1475 15.4392 58.7268 15.423 59.5649 14.585C59.8227 14.3272 60 14.1015 60 13.9887C60 13.0218 56.8735 8.09025 55.7937 6.10798C54.3433 3.43272 53.2635 5.80177 52.087 5.80177C51.1201 5.80177 49.5246 3.98066 47.6874 3.56164C45.979 3.15874 47.6551 0 45.8501 0H36.4222L35.7293 0.531829C35.278 1.38598 36.1322 3.25544 34.7301 3.57776C33.9726 3.75504 31.7647 5.20548 30.9589 5.75342C29.4762 6.78485 28.4287 3.22321 26.7687 6.15633C25.9791 7.5423 22.9654 13.0218 22.1757 13.8759C22.0145 14.0532 22.0629 14.5367 22.917 14.9718C23.2393 15.133 23.5294 15.2941 23.7873 15.5036L26.8654 15.5359C27.2522 13.7147 25.1088 14.7139 25.2377 13.0862C25.3344 11.8614 27.0427 9.86301 27.2039 9.18614C27.4617 8.09025 28.5093 8.29976 29.2345 8.6382C29.6535 8.83159 30.1048 9.02498 31.7164 7.7357C35.7454 4.51249 37.5665 5.72119 37.5665 3.33602C37.5665 2.73973 38.05 2.24013 38.6624 2.24013H42.9492C43.5455 2.24013 44.0451 2.72361 44.0451 3.33602C44.0451 5.99516 46.0274 4.78646 50.0564 8.0419C51.8936 9.52458 52.4255 8.31587 53.199 8.10637C54.2627 7.81628 54.4722 8.86382 55.4553 10.4754L56.6156 12.6511C56.7446 13.2313 56.39 13.8276 55.7937 13.9565C54.5044 14.2627 55.5359 17.2442 55.5359 18.2917C55.5359 20.9186 54.5044 23.336 55.7776 23.4327C56.3739 23.4811 56.8251 24.0129 56.7768 24.6092C56.6801 25.834 54.9718 27.8324 54.8106 28.5093C54.4722 29.9758 52.7317 29.1217 52.0709 28.7349C51.7969 28.5737 51.6519 28.4932 50.1692 29.6052C46.8332 32.1193 45.3344 31.7969 44.577 32.9251C44.0129 34.1015 42.4174 33.747 42.4174 32.5544V29.6374C42.4174 28.2031 43.8034 28.9283 45.8985 27.7035C57.228 21.0637 48.9605 5.49557 37.9533 9.39565C36.1483 10.0403 34.5044 11.1845 33.2957 12.8122V12.8284Z" fill="black"/>
</svg>
